<svg xmlns="http://www.w3.org/2000/svg" width="227.754" height="57.22" aria-label="DLCDB — Device Life Cycle Database" viewBox="0 0 227.754 57.22"><title>DLCDB — Device Life Cycle Database (dark background)</title><path fill="none" stroke="#fff" stroke-width="6.57" d="M32.793 6.402a24.09 24.09 0 0 1 17.622 30.514"/><path fill="none" stroke="#00b1ea" stroke-width="6.57" d="M44.991 46.304a24.09 24.09 0 0 1-35.23 0"/><path fill="none" stroke="#fff" stroke-width="6.57" d="M4.337 36.916A24.09 24.09 0 0 1 21.96 6.402"/><path fill="#fff" d="m48.064 44.596-3.934-9.6 12.563 3.84z"/><path fill="#00b1ea" d="m4.28 40.427 10.285 1.395-9.614 8.957z"/><path fill="#fff" d="m29.778 4.592-6.344 8.212L20.478 0z"/><path d="M96.534 44.616h-7.885v-4.147h7.584q3.738 0 6.166-1.418t3.63-4.082q1.204-2.685 1.204-6.402t-1.182-6.36-3.566-4.039q-2.364-1.418-5.93-1.418h-8.078v-4.146h8.379q4.705 0 8.1 1.933 3.415 1.913 5.242 5.5 1.826 3.567 1.826 8.53t-1.848 8.572q-1.826 3.588-5.285 5.543-3.459 1.934-8.357 1.934m-5.586-32.012v32.012h-4.77V12.604Zm26.338 32.012V12.604h4.77v27.822h15.146v4.19zm36.973.515q-4.404 0-7.777-2.084t-5.264-5.8-1.89-8.616q0-4.941 1.89-8.658 1.89-3.738 5.264-5.8 3.373-2.085 7.777-2.085 2.621 0 4.877.795 2.277.774 4.06 2.235 1.805 1.46 2.965 3.523t1.59 4.62h-4.855q-.344-1.634-1.117-2.901-.774-1.268-1.891-2.149-1.117-.88-2.535-1.31-1.418-.451-3.051-.451-3.158 0-5.436 1.525t-3.523 4.275q-1.225 2.729-1.225 6.381 0 3.631 1.225 6.36 1.246 2.728 3.523 4.254t5.436 1.525q1.633 0 3.03-.43 1.417-.45 2.534-1.31 1.118-.881 1.891-2.149.773-1.267 1.16-2.879h4.834q-.408 2.535-1.59 4.598-1.16 2.062-2.964 3.523-1.784 1.461-4.061 2.235-2.256.773-4.877.773m29.045-.515h-7.884v-4.147h7.584q3.738 0 6.166-1.418 2.427-1.418 3.63-4.082 1.204-2.685 1.204-6.402t-1.182-6.36q-1.182-2.642-3.567-4.039-2.363-1.418-5.93-1.418h-8.077v-4.146h8.379q4.705 0 8.1 1.933 3.415 1.913 5.241 5.5 1.827 3.567 1.827 8.53t-1.848 8.572q-1.826 3.588-5.285 5.543-3.46 1.934-8.358 1.934m-5.586-32.012v32.012h-4.77V12.604Zm26.339 32.012V12.604h11.966q3.309 0 5.65 1.053 2.343 1.03 3.567 2.922 1.246 1.869 1.246 4.447 0 1.826-.644 3.201-.645 1.375-1.848 2.299t-2.879 1.46v.044q1.87.258 3.373 1.181 1.504.924 2.385 2.535.88 1.59.88 3.868 0 2.707-1.267 4.748-1.246 2.02-3.78 3.136-2.536 1.118-6.317 1.118zm4.726-4.018h7.305q3.266 0 5.027-1.268 1.783-1.289 1.783-3.738 0-1.633-.773-2.793-.773-1.181-2.256-1.826-1.482-.644-3.61-.644h-7.476zm0-14.201h7.176q1.826 0 3.115-.58 1.31-.602 1.998-1.697t.688-2.6q0-2.256-1.547-3.566-1.525-1.333-4.254-1.333h-7.176z" aria-label="DLCDB" style="font-weight:500;font-size:44px;font-family:&quot;Inter Variable&quot;;-inkscape-font-specification:&quot;Inter Variable Medium&quot;;letter-spacing:.6;fill:#fff"/></svg>