<?xml version="1.0" encoding="UTF-8" standalone="no"?>
<!-- Created with Inkscape (http://www.inkscape.org/) -->

<svg
   xmlns:dc="http://purl.org/dc/elements/1.1/"
   xmlns:cc="http://creativecommons.org/ns#"
   xmlns:rdf="http://www.w3.org/1999/02/22-rdf-syntax-ns#"
   xmlns:svg="http://www.w3.org/2000/svg"
   xmlns="http://www.w3.org/2000/svg"
   xmlns:sodipodi="http://sodipodi.sourceforge.net/DTD/sodipodi-0.dtd"
   xmlns:inkscape="http://www.inkscape.org/namespaces/inkscape"
   id="svg2"
   version="1.1"
   inkscape:version="0.91 r13725"
   xml:space="preserve"
   width="180.03751"
   height="180.03751"
   viewBox="0 0 180.03751 180.03751"
   sodipodi:docname="minerva.svg"><metadata
     id="metadata8"><rdf:RDF><cc:Work
         rdf:about=""><dc:format>image/svg+xml</dc:format><dc:type
           rdf:resource="http://purl.org/dc/dcmitype/StillImage" /><dc:title></dc:title></cc:Work></rdf:RDF></metadata><defs
     id="defs6" /><sodipodi:namedview
     pagecolor="#ffffff"
     bordercolor="#666666"
     borderopacity="1"
     objecttolerance="10"
     gridtolerance="10"
     guidetolerance="10"
     inkscape:pageopacity="0"
     inkscape:pageshadow="2"
     inkscape:window-width="640"
     inkscape:window-height="480"
     id="namedview4"
     showgrid="false"
     inkscape:zoom="1.310838"
     inkscape:cx="90.018753"
     inkscape:cy="90.018753"
     inkscape:window-x="0"
     inkscape:window-y="28"
     inkscape:window-maximized="0"
     inkscape:current-layer="g10" /><g
     id="g10"
     inkscape:groupmode="layer"
     inkscape:label="ink_ext_XXXXXX"
     transform="matrix(1.25,0,0,-1.25,0,180.0375)"><g
       id="g12"
       transform="scale(0.1,0.1)"><path
         d="m 20.1602,720.168 c 0,385.972 313.9998,700.002 700.0078,700.002 385.972,0 700.002,-314.03 700.002,-700.002 0,-386.02 -314.03,-700.0391 -700.002,-700.0391 C 334.16,20.1289 20.1602,334.148 20.1602,720.168 Z M 0,720.168 C 0,323.047 323.047,0 720.168,0 c 397.092,0 720.152,323.047 720.152,720.168 0,397.062 -323.06,720.122 -720.152,720.122 C 323.047,1440.29 0,1117.23 0,720.168"
         style="fill:#231f20;fill-opacity:1;fill-rule:nonzero;stroke:none"
         id="path14"
         inkscape:connector-curvature="0" /><path
         d="m 1193.3,603.016 c -19.59,-18.243 -47.37,-18.536 -69.86,-33.328 -10.31,-10.313 -7.7,-22.043 -3.49,-35.02 8.32,-16.453 5.17,-14.754 -6.45,-18.633 -27.16,-9.043 -26.84,-38.738 -59.49,-33.762 -1.86,-0.554 -9.49,3.266 -4.99,-2.207 3.52,-4.179 4.99,-1.668 11.9,-2.5 11.63,-0.554 15.96,4.239 24.13,9.786 11.65,9.816 10.26,13.488 24.58,20.382 3.43,0.813 11.89,3.321 16.6,1.661 3.18,-2.93 3.27,-3.008 3.79,-5.625 -1.86,-7.961 -13.47,-14.571 -17.91,-17.344 6.11,-4.473 17.53,-12.024 15.69,-18.348 -2.63,-4.16 -2.49,-4.863 -7.11,-7.113 -6.47,-3.125 -19.38,-2.656 -31.55,6.371 -1.84,-0.57 -3.87,3.59 -9.09,-1.352 11.87,-12.207 28.46,-9.441 30.96,-11.933 2.49,-2.488 -8.88,-17.223 -9.38,-20.387 -7.96,-21.164 1.8,-40.656 -2.45,-62.641 -2.62,-17.183 -7.77,-25.371 -22.83,-36.21 -27.62,-19.122 -46.97,-24.645 -77.967,-29.637 -81.258,-5.547 -132.528,22.332 -191.035,66.035 -58.524,43.711 -80.899,66.953 -99.168,91.551 -0.266,10.07 7.133,17.707 0.804,28.593 -5.285,-1.851 -4.761,-8.726 -7.949,-12.722 -4.508,-6.367 -15.347,-11.094 -23.043,-10.324 -24.07,8.203 -25.41,36.515 -40.465,52.675 -32.289,31.77 -41.312,77.563 -24.082,115.918 6.067,11.914 16.907,23.305 29.114,27.52 15.054,2.406 32.812,2.406 42.617,-12.168 11.609,-11.09 18.789,-29.109 21.672,-44.981 4.773,-7.691 -1.039,-16.425 6.879,-22.793 13.753,-1.289 25.664,-4.726 38.906,3.704 9.805,-1.282 11.133,-12.161 18.543,-16.895 l 13.242,-7.949 c 14.004,-5.813 32.023,-5.813 43.937,4.512 22.227,22.742 17.372,46.152 25.028,71.269 21.211,18.789 35.293,45.676 35.039,71.91 -1.328,16.129 -7.137,32.809 -16.688,48.93 1.59,9.543 6.883,16.68 10.067,25.16 2.656,1.59 6.094,1.59 8.996,2.106 23.555,5.027 45.008,26.48 54.258,48.968 l 2.097,2.106 c 27.004,1.851 60.628,11.394 76.238,39.73 3.18,12.168 16.95,3.18 25.41,6.067 14.27,0.808 28.59,8.722 39.43,18.007 3.18,1.075 5.54,-2.402 7.44,-3.957 6.33,-21.195 17.98,-41.57 24.59,-63.027 8.21,-16.125 11.14,-31.473 8.21,-47.894 3.45,-25.122 17.73,-48.676 27.78,-74.094 10.06,-26.746 25.67,-53.75 37.05,-81.258 2.13,-11.105 6.89,-19.871 0,-28.859 z m 5.52,46.203 c -19.05,43.945 -40.46,81.777 -56.11,125.988 -11.1,15.867 -4.74,32.801 -6.07,49.75 -7.13,26.477 -18.28,46.859 -28.84,72.523 -2.93,7.399 5.29,9.54 8.21,14.793 4.77,12.989 1.33,27.567 -4.52,39.993 -2.36,7.132 6.11,12.168 4.52,19.566 -0.29,11.387 -10.32,19.082 -18.28,25.156 -11.91,17.192 -17.45,26.222 -32.28,41.822 l 0,2.93 c 7.4,6.58 13.5,17.97 13.24,27.77 -2.92,11.1 -5.3,21.42 -15.92,29.12 -16.89,9.53 -34.09,-5.29 -47.59,-12.99 -3.73,-2.62 -5.59,-5.29 -10.88,-4.76 -3.42,1.21 -6.96,2.48 -10.573,3.78 -3.457,-3.94 -7.747,-8.12 -13.008,-12.28 l 16.433,-6.67 c 0.606,-0.45 0.821,-0.78 0.821,-1.33 0,-0.3 -0.098,-0.82 -0.176,-1.26 -1.152,-0.99 -38.067,-33.37 -38.067,-33.37 -0.105,-0.07 -66.542,-65.715 -66.542,-65.715 0,-0.047 -19.051,-19.359 -19.051,-19.359 -0.11,-0.106 -59.133,-68.129 -59.133,-68.129 -30.887,-35.809 -76.492,-94.578 -103.945,-137.586 -14.274,-19.688 -28.52,-41.547 -41.797,-62.223 -1.434,-2.297 -4.145,-2.109 -8.426,-1.593 -2.926,0.332 -5.926,0.636 -8.629,-0.293 0.078,0 0.117,0 0.117,0 l -0.597,-0.145 c 0.152,0.039 0.339,0.078 0.48,0.145 -15.012,-1.661 -25.918,-6.661 -37.609,-17.235 -15.164,-17.863 -22.785,-39.5 -22.785,-62.844 0,-16.054 3.66,-32.968 11.019,-49.937 -3.102,-9.106 -10.242,-17.121 -16.641,-24.219 l -3.554,-4.008 -4.547,-4.472 c -2.957,-2.809 -6.328,-5.985 -8.77,-9.09 l -0.218,-0.293 -0.153,-0.379 c -0.297,-0.996 -0.437,-2.883 2.485,-4.289 l 0.695,-0.371 0.781,0.183 c 13.988,3.332 22.793,13.829 31.328,24.004 0,0 5.371,6.184 6.145,7.102 1.254,0.223 2.293,-0.481 4.144,-2.039 0.957,-0.801 2.067,-1.586 3.325,-2.168 0,-0.293 0,-0.707 0,-0.707 0,0 -0.192,-4.52 -0.223,-5.543 -33.109,-32.707 -60.07,-51.164 -95.316,-71.875 l -5.883,-3.442 6.8,-0.703 c 13.762,-1.363 26.821,6.36 39.438,13.84 l 15.164,8.348 c 14.016,7.187 27.004,18.125 39.609,28.711 0,0 11.399,9.465 12.618,10.461 1.179,-0.176 2.515,-1.699 3.55,-2.922 0,0 0.746,-0.797 1.227,-1.328 0.223,-0.399 10.57,-20.895 11.199,-22.117 -2.367,-9.727 -3.402,-19.454 -3.402,-29.18 0,-21.203 4.59,-42.277 9.094,-62.918 4.441,-20.344 9.031,-41.359 9.031,-61.996 0,-1.375 -0.035,-2.696 -0.074,-4.071 0,-6.355 -6.993,-14.824 -12.797,-17.488 -13.242,-2.269 -29.219,-2.402 -46.164,-2.562 -20.746,-0.176 -42.235,-0.371 -58.735,-4.84 -5.328,-0.625 -11.465,-2.367 -17.422,-4.035 -5.843,-1.621 -11.875,-3.332 -17.496,-4.102 l -0.554,-0.078 -0.637,-0.48 -2.027,-1.395 c -1.883,-1.184 -4.211,-2.625 -4.774,-5.41 -0.035,-0.215 -0.066,-0.481 -0.066,-0.735 0,-1.601 0.734,-3.328 1.918,-4.55 1.144,-1.188 2.586,-1.739 4.07,-1.59 4.992,0 10.57,2.031 16.016,3.996 3.777,1.367 7.73,2.809 11.351,3.434 34.481,5.878 72.274,4.699 97.871,2.628 12.653,0.227 33.399,0.637 40.871,18.567 2.704,7.293 3.629,14.058 3.629,20.574 0,7.168 -1.109,14.09 -2.258,21.18 l -2.253,17.461 c -1.52,10.656 -3.778,21.273 -5.957,31.566 -3.879,18.27 -7.879,37.051 -7.879,56.07 0,3.84 0.222,7.727 0.554,11.606 0.371,0.488 0.77,1.074 1.266,1.148 1.109,0.149 3.062,-1.402 4.621,-2.636 1.773,-1.395 3.578,-2.731 5.582,-3.243 2.289,-1.734 4.883,-2.226 7.246,-2.519 3.297,-0.449 5.067,-0.848 6.11,-3.399 1.476,-16.726 7.25,-34.003 12.835,-50.71 3.844,-11.516 7.84,-23.411 10.395,-35.028 4.547,-20.344 9.133,-40.988 9.133,-61.328 0,-12.09 -1.625,-24.113 -5.879,-35.91 -8.848,-16.106 -28.191,-16.172 -46.871,-16.25 l -5.582,0 -45.789,2.785 c -39.289,2.848 -79.899,5.758 -121.539,-0.969 0.289,0.039 -9.328,-0.996 -9.328,-0.996 -5.145,-0.781 -9.989,-1.406 -15.2,-0.187 -1.929,1.566 -3.484,4.25 -3.484,7.062 0,0.887 0.148,1.817 0.519,2.703 7.438,16.43 11.18,31.262 11.18,44.387 0,10.652 -2.453,20.168 -7.336,28.523 -10.761,20.637 -22.594,34.942 -37.203,44.942 -17.883,17.891 -33.172,33.75 -46.758,49.203 -7.941,0.996 -12.832,2.566 -13.355,2.73 l -1.77,0.61 -7.949,-9.797 c 10.316,-9.793 19.852,-19.602 31.504,-30.164 17.723,-9.551 32.043,-26.75 44.73,-38.41 15.348,-17.969 19.043,-37.024 15.86,-58.215 -2.106,-25.117 -25.113,-35.996 -40.754,-52.664 -6.324,-11.922 -10.32,-26.203 -1.594,-37.324 5.59,-14.805 29.371,-12.129 32.293,-24.344 6.543,-26.887 53.192,-42.422 62.285,-43.047 9.059,-0.637 18.457,-10.656 18.457,-10.656 18.532,-13.504 42.871,-10.254 55.664,-8.293 12.762,1.933 35.625,-8.387 49.934,-6.289 21.422,8.48 38.918,4.511 61.141,6.367 69.871,-1.074 149.254,0.519 220.711,-8.465 13.242,1.59 29.121,-8.742 41.582,-2.41 3.171,5.332 0.781,9.801 0,14.312 -34.153,53.711 -39.258,114.004 -19.895,172.524 l 12.891,-0.754 c 46.347,-5.039 88.492,0.965 135.582,28.211 23.56,12.992 35.94,43.332 34.88,65.312 -0.79,14.27 -5.74,31.137 -3.34,46.231 0.83,6.742 5.29,16.957 11.08,20.176 2.48,1.386 11.17,7.277 13.88,14.804 4.48,12.246 -5.12,18.028 -7.88,19.688 7.47,3.047 14.72,18.34 7.83,30.254 -4.43,4.707 -9.57,23.293 -10.12,29.398 -1.58,8.727 -1.85,17.723 6.37,23.309 18.53,9.754 35.99,12.168 55.29,20.633 13.24,5.546 20.12,19.308 19.61,31.738 l -7.96,27.004 z M 442.195,212.832 c -2.371,-4.246 -2.035,-7.102 -3.109,-12.207 -1.289,-2.324 -7.914,0.809 -10.02,2.121 -8.218,4.43 -7.66,2.176 -10.027,9.793 -1.328,5.098 -1.18,11.094 7.289,15.539 5.289,2.985 15.867,6.582 19.301,0 1.082,-4.445 -4.207,-10.18 -3.434,-15.246 z m 45.164,-57.187 c -10.847,-0.254 -18.457,5.664 -23.488,18.457 -5.07,16.277 -6.773,30.664 -3.262,47.41 1.118,2.121 3.516,3.488 5.075,2.793 l 15.125,5.136 c 5.074,2.071 9.211,2.774 14.058,1.622 l 3.071,-3.024 c -0.227,-8.851 -2.407,-15.355 -2.625,-23.527 -0.887,-20.5 -2.629,-26.602 3.289,-46.125 -2.184,-5.133 -6.547,-2.664 -11.243,-2.742 z m 621.951,761.293 c -1.47,-1.547 -3.33,-3.477 -5.8,-2.813 -5.62,3.922 -3.49,8.922 -3.14,13.652 1.14,1.145 1.31,1.813 3.14,1.813 2.67,0.449 4.14,-1.52 5.13,-2.926 1.67,-3.066 1.85,-6.543 0.67,-9.726 z M 679.848,669.082 c 37.062,66.43 82.082,124.133 130.234,183.422 l 67.492,76.715 c 48.164,51.375 101.356,104.051 160.386,144.771 7.4,4.26 10.66,12.95 18.31,6.84 l 6.95,-6.4 c 4.67,-5.29 0.59,-20.3 -4.17,-24.52 -3.81,-3.11 -7.51,-6.18 -11.17,-9.21 11.51,-11.39 28.1,-33.06 41.75,-47.087 6,-6.175 4.14,-12.574 14.89,-17.566 5.35,-2.524 6.87,-8.363 3.69,-13.387 -9.52,-12.172 -25.38,-10.32 -37.85,-13.504 C 1024.06,938.84 986.625,925.594 935.395,900.738 894.379,879.027 861.566,854.953 831.891,817.629 820.551,803.609 807.816,793 798.324,776.09 771.313,741.391 749.867,708.848 728.406,673.125 c -7.652,-11.25 -10.168,-16.836 -20.894,-27.023 -5.211,-4.938 -9.871,5.402 -13.133,9.003 -0.371,0.403 -0.59,0.852 -0.848,1.25 -1.113,-0.144 -2.258,0.071 -3.363,0.813 -2.887,3.711 -11.91,5.293 -10.32,11.914 z m 408.242,256.625 c -0.71,-12.836 -17.83,-23.445 -32.16,-27.41 -6.09,-0.957 -11.72,-0.598 -17.12,-0.598 -1.4,1.008 -3.02,2.192 -2.81,3.567 0.93,6.097 1.89,9.648 2.34,15.156 l 3.54,2.59 c 12.66,2.547 28.12,5.285 40.8,8.66 1.89,-0.41 4.22,-0.227 5.41,-1.965 z m -133.016,-33.402 2.293,2.925 c 10.352,4.915 20.012,8.727 31.516,12.055 l 13.797,3.59 c 3.65,3.324 10.09,6.023 13.79,1.328 0.23,-17.863 -13.13,-39.316 -32.872,-47.558 -6.219,-2.707 -14.5,-3.594 -21.864,-5.403 -1.847,1.582 -7.843,-1.781 -9.66,2.696 1.145,8.957 4.602,22.339 3,30.367 z M 813.773,575.617 c -3.691,-2.152 -35.683,10.055 -31.953,6.656 -7.578,8.204 4.817,10.981 -23.418,21.567 l -6.843,-0.707 c -0.879,-0.82 -3.371,-2.078 -5.918,1.449 -0.254,4.246 5.332,3.621 7.097,8.914 10.11,22.746 4.563,40.352 3.555,63.906 l 7.473,19.309 c 14.168,17.086 14.129,19.535 23.75,28.816 9.617,13.5 11.621,14.532 24.492,25.629 2.097,1.813 5.984,3.258 8.504,1.114 6.074,-4.731 6.398,-7.84 8.176,-13.911 3.035,-22.523 -10.586,-37.949 -27.004,-50.117 -11.661,-10.058 -22.754,-25.676 -20.235,-41.027 l 0.996,-1.035 c 5.325,4.484 12.024,7.113 14.278,12.66 8.879,19.824 32.773,28.844 46.164,46.039 5.801,10.32 2.254,28.23 0,40.141 -0.071,-0.336 17.539,8.324 12.754,5.214 8.367,-3.441 7.332,-9.437 11.367,-17.082 7.84,-19.871 7.168,-37.812 -4.953,-55.007 l -33.367,-41.602 c -0.52,-21.211 5.32,-48.496 -14.915,-60.926 z m 44.024,201.352 c -8.027,-3.688 -16.277,-4.504 -25.156,-0.403 -2.254,3.071 -9.59,5.559 -6.688,10.063 6.434,10.43 17.344,19.051 24.031,29.297 l 3.118,1.664 c 13.574,16.383 34.949,30.109 55.222,42.43 l 12.239,5.328 c 2.664,2.656 8.914,8.203 11.355,2.472 0.449,-21.347 -8.582,-44.164 -28.926,-59.257 -12.351,-9.129 -17.644,-7.356 -28.66,-8.024 l -5.664,-10.25 c -1.328,-5.105 -5.773,-10.246 -10.871,-13.32 z M 745.492,655.176 744.938,640.09 c -1.36,-13.774 -7.727,-29.629 -20.672,-37.328 -7.735,1.847 -4.961,11.133 -6.879,17.453 4.957,13.758 14.621,25.156 22.597,37.324 1.075,0.809 2.188,1.34 3.293,0.809 l 2.215,-3.172 z M 561.223,130.422 c -5.399,-5.539 -8.43,-2.961 -13.91,-3.481 -15.571,4.231 -24.778,10.989 -29.184,28.637 -5.699,24.598 -5.512,51.637 0,76.746 l 2.516,1.965 c 10.949,1.258 27.523,3.473 32.031,1.004 4.48,-2.492 -4.848,-46.73 -4.848,-46.73 -0.289,-8.766 4.008,-31.219 7.996,-42.872 0.848,-1.726 9.801,-10.722 5.399,-15.269 z m 112.996,27.332 c -1.664,-15.789 -21.485,-29.707 -31.184,-32.508 -9.726,-2.777 -38.754,-1.406 -47.117,1.481 -8.32,2.871 -28.699,42.687 -26.332,63.363 0,17.047 4.59,44.121 11.426,46.305 6.843,2.152 24.965,1.035 24.965,1.035 7.586,0.508 13.308,-1.297 19.976,-2.071 4.735,-1.812 1.406,-7.769 3.067,-11.14 2.148,-8.797 2.628,-18.34 8.097,-27.137 7.617,-14.769 21.645,-23.578 35.438,-28.742 3.113,-2.84 1.406,-6.699 1.664,-10.586 z m -22.266,66.797 c 0,3.195 0.184,4.484 2.598,5.515 l 13.086,0 c 11.617,-0.398 26.562,-4.218 37.437,7.032 6.25,-0.223 6.801,-7.657 8.461,-13.387 1.485,-8.039 1.117,-13.133 1.117,-20.34 -2.593,-5.695 -5.511,-14.398 -11.429,-18.031 -9.395,-4.43 -18.832,-3.582 -27.852,0 -13.648,8.078 -23.594,20.976 -23.418,39.211 z m 267.973,62.48 c -17.488,-60.613 -25.809,-91.886 1.496,-154.355 0.254,-2.375 2.879,-10.086 0,-11.133 -30.195,6.062 -38.215,8.664 -66.543,10.762 -26.191,4.523 -69.699,-2.762 -98.801,-2.508 -22.742,-0.774 -45.789,-1.555 -69.617,-4.477 -7.137,3.703 -1.594,11.653 -1.031,16.934 2.625,8.215 2.879,12.434 3.703,21.965 3.695,3.965 8.211,1.867 12.687,3.711 15.344,2.363 28.332,15.867 32.024,30.187 4.773,15.047 -0.508,31.727 -7.395,46.043 -1.336,4.219 -7.144,7.391 -4.773,11.61 18.797,35.226 5.551,70.949 -0.774,105.355 -6.625,24.375 -16.679,51.336 -20.672,77.039 0.805,2.629 -2.632,8.731 3.172,9.25 l 2.149,-0.519 c 20.078,-24.375 77.676,-75.918 99.25,-92.668 21.562,-16.727 77.254,-49.219 113.504,-57.95 3.437,-2.879 2.922,-5.281 1.621,-9.246"
         style="fill:#231f20;fill-opacity:1;fill-rule:nonzero;stroke:none"
         id="path16"
         inkscape:connector-curvature="0" /><path
         d="m 1072.89,813.969 c 3.69,-4.77 6.08,-8.992 3.17,-13.504 -6.88,-0.52 -7.95,8.211 -13.76,11.137 -9.54,4.726 -18.01,-0.297 -27.52,-2.672 -24.07,-10.317 -44.198,-30.957 -67.51,-41.793 -2.879,0 -5.536,0.261 -7.383,2.367 3.957,3.957 10.312,4.773 15.343,7.957 24.083,15.863 47.38,40.719 77.53,45.238 7.96,0.508 15.1,-2.367 20.13,-8.73"
         style="fill:#231f20;fill-opacity:1;fill-rule:nonzero;stroke:none"
         id="path18"
         inkscape:connector-curvature="0" /><path
         d="m 1071.02,773.203 c -1.84,5.84 -1.58,15.356 -8.72,16.68 -1.58,-3.695 0,-7.695 -1.58,-11.129 -2.12,-2.625 -5.82,-5.805 -10.07,-4.734 -29.12,-1.852 -50.822,-27.559 -75.673,-40.762 -8.477,-4.766 -18.02,-7.434 -27.004,-9.805 -0.821,-1.328 -0.528,-3.18 0.761,-3.957 27.571,-2.926 54.786,-5.578 82.086,-8.465 l 30.41,3.438 c 0.82,3.957 -3.96,7.398 -3.18,11.91 3.47,12.426 4.51,25.926 1.08,37.578 2.39,6.328 11.38,1.586 11.89,9.246 z m -21.26,-47.008 c -3.74,-5.515 -9.65,-0.703 -14.87,-1.367 -11.9,1.367 -32.03,-1.41 -45.167,0.215 -1.985,1.152 -3.457,3.223 -2.246,5.074 1.992,3.246 7.468,3.473 10.945,6.02 14.388,8.992 29.508,17.539 45.898,21.457 2.97,0.445 5.44,-2.071 5.95,-4.149 1.97,-7.609 0.75,-19.855 -0.51,-27.25"
         style="fill:#231f20;fill-opacity:1;fill-rule:nonzero;stroke:none"
         id="path20"
         inkscape:connector-curvature="0" /><path
         d="m 1086.42,636.766 c 0.97,1.386 2.08,2.949 3.38,3.086 1.73,-0.641 2.64,-1.465 2.88,-4.645 -0.22,-5.109 -1.51,-10.473 -2.89,-16.164 -1.57,-6.477 -3.19,-13.098 -3.19,-19.578 0,-2.883 0.33,-5.723 1.09,-8.539 3.84,-4.754 9.74,-5.836 16.83,-3.418 0.12,0.07 12.06,6.906 12.06,6.906 10.36,6.211 20.16,12.051 38.31,16.68 0.45,0.117 0.54,-0.031 0.62,-0.11 0.28,-0.32 0.41,-1.004 0.41,-1.855 0,-1.563 -0.46,-3.691 -1.21,-5.418 -0.69,-0.301 -17.47,-7.793 -17.47,-7.793 -13.21,-5.773 -26.87,-11.746 -39.68,-19.082 -3.79,-0.773 -7.29,1.258 -10.66,3.254 l -0.82,0.488 c -4.87,6.656 -6.45,13.113 -6.45,19.567 0,5.8 1.26,11.582 2.56,17.531 1.21,5.539 2.44,11.269 2.73,17.277 0.43,0.508 1.5,1.813 1.5,1.813"
         style="fill:#231f20;fill-opacity:1;fill-rule:nonzero;stroke:none"
         id="path22"
         inkscape:connector-curvature="0" /><path
         d="m 674.043,642.188 c 9.535,-19.559 -0.527,-38.098 0,-58.477 1.582,-5.813 12.977,-6.621 9.535,-13.496 -2.664,-1.844 -6.367,-2.363 -9.281,-0.254 -5.289,3.437 -7.141,6.062 -8.473,12.168 -1.332,17.976 12.985,38.918 0.262,55.84 -3.703,3.703 -8.988,7.402 -14.281,7.656 -11.391,-2.102 -17.196,-14.27 -21.153,-23.25 -6.101,-23.828 -7.699,-48.977 13.2,-68.031 12.207,-7.137 27.003,-14.832 27.812,-30.184 1.852,-2.656 5.547,-5.281 8.473,-3.699 3.703,0.254 4.218,10.836 9.511,5.816 l 1.586,-3.711 c -1.332,-4.218 -2.632,-11.648 -9.507,-11.902 -3.442,-0.781 -7.172,1.063 -10.063,3.176 -7.43,7.664 -1.586,19.312 -14.051,24.332 -20.636,6.379 -34.136,28.078 -36.25,48.469 -1.328,19.562 -0.519,41.004 16.418,58.211 6.629,5.039 15.364,8.214 23.824,5.546 4.778,-0.769 10.321,-4.218 12.438,-8.21"
         style="fill:#231f20;fill-opacity:1;fill-rule:nonzero;stroke:none"
         id="path24"
         inkscape:connector-curvature="0" /><path
         d="M 415.293,499.051 C 377.605,481.57 366.102,436.688 365.621,434.773 l -1.004,-3.964 3.891,-1.329 c 1.476,-0.476 36.472,-11.941 79.152,9.024 43.059,21.125 51.895,63.742 52.262,65.547 l 0.887,4.512 -4.555,0.734 c -1.774,0.301 -43.969,6.922 -80.961,-10.246 z m 3.734,-8.086 c 27.528,12.754 58.965,11.281 70.801,10.129 -3.375,-10.918 -14.793,-39.239 -46.094,-54.598 -31.398,-15.383 -58.296,-11.723 -68.129,-9.574 3.629,10.871 15.79,41.203 43.422,54.043"
         style="fill:#231f20;fill-opacity:1;fill-rule:evenodd;stroke:none"
         id="path26"
         inkscape:connector-curvature="0" /><path
         d="m 452.855,583.664 c -37.757,-17.043 -51.703,-61.516 -52.257,-63.402 l -1.297,-4.246 4.219,-1.301 c 1.476,-0.477 36.359,-10.875 79.195,9.621 43.23,20.672 52.406,61.844 52.773,63.586 l 0.922,4.508 -4.508,0.812 c -1.699,0.305 -41.906,7.18 -79.047,-9.578 z m 3.668,-8.137 c 27.411,12.395 57.325,10.789 68.805,9.578 -3.527,-10.64 -15.211,-37.8 -46.465,-52.742 -31.144,-14.863 -57.855,-12.062 -68.062,-10.148 4.336,11.105 18.129,40.84 45.722,53.312"
         style="fill:#231f20;fill-opacity:1;fill-rule:evenodd;stroke:none"
         id="path28"
         inkscape:connector-curvature="0" /><path
         d="m 501.895,665.129 c -37.793,-16.606 -54.184,-60.625 -54.852,-62.5 l -1.66,-4.524 4.621,-1.289 c 1.48,-0.41 36.285,-9.765 79.195,10.243 43.422,20.195 52.926,59.921 53.328,61.621 l 1.004,4.484 -4.508,0.879 c -1.597,0.332 -39.804,7.508 -77.128,-8.914 z m 3.593,-8.164 c 27.293,12.008 55.7,10.308 66.836,9.019 -3.703,-10.398 -15.644,-36.324 -46.863,-50.855 -30.813,-14.32 -57.297,-12.367 -67.945,-10.707 5.105,11.293 20.418,40.43 47.972,52.543"
         style="fill:#231f20;fill-opacity:1;fill-rule:evenodd;stroke:none"
         id="path30"
         inkscape:connector-curvature="0" /><path
         d="M 550.605,745.609 C 512.77,729.41 493.98,685.801 493.203,683.996 l -2.031,-4.816 5.062,-1.258 c 1.442,-0.375 36.133,-8.695 79.188,10.828 43.578,19.762 53.418,58.043 53.832,59.668 l 1.098,4.477 -4.512,0.968 c -1.516,0.325 -37.688,7.762 -75.235,-8.254 z m 3.512,-8.211 c 27.227,11.614 54.121,9.836 64.844,8.512 -3.848,-10.14 -16.051,-34.918 -47.238,-49.043 -30.473,-13.812 -56.778,-12.617 -67.797,-11.203 5.883,11.496 22.75,40.004 50.191,51.734"
         style="fill:#231f20;fill-opacity:1;fill-rule:evenodd;stroke:none"
         id="path32"
         inkscape:connector-curvature="0" /><path
         d="M 618.035,826.133 C 580.09,810.379 558.93,767.168 558.043,765.359 l -2.477,-5.105 5.504,-1.176 c 1.485,-0.336 36.067,-7.582 79.235,11.43 43.758,19.301 53.929,56.148 54.328,57.699 l 1.191,4.438 -4.476,1.07 c -1.407,0.336 -35.618,8.062 -73.313,-7.582 z m 3.406,-8.246 c 27.071,11.238 52.52,9.394 62.875,7.949 -4.035,-9.836 -16.488,-33.434 -47.597,-47.156 -30.375,-13.391 -56.375,-12.84 -67.653,-11.727 6.77,11.688 25.039,39.574 52.375,50.934"
         style="fill:#231f20;fill-opacity:1;fill-rule:evenodd;stroke:none"
         id="path34"
         inkscape:connector-curvature="0" /><path
         d="M 692.348,903.813 C 654.359,888.5 630.762,845.703 629.766,843.891 l -2.891,-5.368 5.996,-1.144 c 1.442,-0.258 35.953,-6.508 79.188,12.059 43.98,18.867 54.488,54.257 54.89,55.734 l 1.27,4.414 -4.414,1.137 c -1.367,0.336 -33.582,8.367 -71.457,-6.91 z m 3.328,-8.25 c 26.89,10.832 50.883,8.949 60.883,7.429 -4.219,-9.574 -16.946,-32.066 -48.008,-45.34 -30.078,-12.918 -55.817,-13.027 -67.395,-12.207 7.578,11.875 27.301,39.129 54.52,50.118"
         style="fill:#231f20;fill-opacity:1;fill-rule:evenodd;stroke:none"
         id="path36"
         inkscape:connector-curvature="0" /><path
         d="M 771.684,977.266 C 733.629,962.359 707.66,919.969 706.582,918.152 l -3.437,-5.652 6.55,-1.031 c 1.446,-0.223 35.836,-5.446 79.188,12.648 44.129,18.387 54.961,52.301 55.41,53.738 l 1.336,4.372 -4.363,1.214 c -1.27,0.372 -31.477,8.731 -69.582,-6.175 z m 3.254,-8.317 c 26.667,10.426 49.304,8.496 58.894,6.953 -4.402,-9.285 -17.391,-30.664 -48.387,-43.574 -29.629,-12.359 -55.183,-13.172 -67.129,-12.656 8.5,12.066 29.618,38.691 56.622,49.277"
         style="fill:#231f20;fill-opacity:1;fill-rule:evenodd;stroke:none"
         id="path38"
         inkscape:connector-curvature="0" /><path
         d="m 854.242,1045.03 c -38.172,-14.5 -66.504,-56.479 -67.683,-58.264 l -4.004,-5.981 7.148,-0.933 c 1.434,-0.176 35.731,-4.325 79.188,13.281 44.316,17.947 55.488,50.377 55.937,51.777 l 1.387,4.27 -4.285,1.36 c -1.184,0.37 -29.407,9.03 -67.688,-5.51 z m 3.184,-8.32 c 26.418,10.02 47.676,8.06 56.855,6.43 -4.597,-8.98 -17.871,-29.25 -48.718,-41.75 -29.407,-11.882 -54.629,-13.285 -66.836,-13.07 9.394,12.17 31.765,38.18 58.699,48.39"
         style="fill:#231f20;fill-opacity:1;fill-rule:evenodd;stroke:none"
         id="path40"
         inkscape:connector-curvature="0" /><path
         d="m 938.102,1105.77 c -38.254,-14.1 -68.957,-55.71 -70.254,-57.48 l -4.582,-6.29 7.734,-0.79 c 1.438,-0.14 35.656,-3.25 79.23,13.88 44.461,17.45 55.96,48.46 56.45,49.79 l 1.47,4.21 -4.21,1.49 c -1.08,0.4 -27.342,9.36 -65.838,-4.81 z m 3.054,-8.36 c 26.153,9.61 46.145,7.65 54.895,5.95 -4.817,-8.66 -18.301,-27.89 -49.113,-39.98 -29.004,-11.4 -53.907,-13.36 -66.407,-13.47 10.293,12.29 33.899,37.62 60.625,47.5"
         style="fill:#231f20;fill-opacity:1;fill-rule:evenodd;stroke:none"
         id="path42"
         inkscape:connector-curvature="0" /><path
         d="m 355.02,584.258 c -1.118,-1.426 -27.301,-35.418 -30.004,-76.336 -2.703,-41.652 31.367,-73.457 32.843,-74.789 l 2.989,-2.774 3.043,2.774 c 1.148,1.039 28.113,26.332 30.187,74.121 2.102,48.125 -31.297,76.496 -32.707,77.676 l -3.539,2.968 -2.812,-3.64 z m -21.204,-80.996 c 0,1.367 0.039,2.703 0.118,4.074 1.996,30.625 18.566,57.625 25.222,67.352 7.735,-7.95 26.117,-30.293 26.117,-63.215 0,-1.258 -0.039,-2.547 -0.117,-3.844 -1.515,-35.102 -17.715,-57.113 -24.375,-64.731 -7.543,8.067 -26.965,31.582 -26.965,60.364"
         style="fill:#231f20;fill-opacity:1;fill-rule:evenodd;stroke:none"
         id="path44"
         inkscape:connector-curvature="0" /><path
         d="m 408.164,675.926 c -0.883,-1.004 -22.187,-24.492 -31.289,-58.258 -1.223,-4.582 -2.187,-9.504 -2.777,-14.574 -4.914,-40.387 24.261,-73.496 25.527,-74.903 l 2.879,-3.211 3.332,2.813 c 1.144,0.996 28.695,24.883 34.293,71.27 5.617,46.902 -24.336,75.859 -25.602,77.078 l -3.293,3.117 -3.07,-3.332 z m -25.703,-81.93 c 0,2.633 0.144,5.332 0.477,8.024 0.554,4.668 1.414,9.144 2.55,13.312 6.516,24.211 20.016,43.094 26.082,50.754 6.395,-7.621 20.34,-27.414 20.34,-55.625 0,-3.332 -0.226,-6.77 -0.633,-10.324 -4.066,-33.809 -20.894,-54.778 -27.953,-62.297 -6.293,8.332 -20.863,30.265 -20.863,56.156"
         style="fill:#231f20;fill-opacity:1;fill-rule:evenodd;stroke:none"
         id="path46"
         inkscape:connector-curvature="0" /><path
         d="M 467.754,761.883 C 466.797,761 444.449,740.172 433.09,706.625 c -1.434,-4.25 -2.617,-8.871 -3.543,-14.086 -7.106,-39.074 17.191,-73.43 18.234,-74.91 l 2.696,-3.774 3.668,2.895 c 1.175,0.918 29.332,23.395 38.394,68.418 9.172,45.613 -17.355,75.199 -18.496,76.418 l -2.996,3.328 -3.293,-3.031 z m -30.551,-83.738 c 0,4.168 0.324,8.503 1.145,12.839 0.84,4.77 1.886,8.946 3.183,12.793 8.059,23.821 22.379,41.059 28.852,48.051 5.101,-7.215 15.125,-24.383 15.125,-47.98 0,-5.328 -0.524,-10.977 -1.738,-16.934 -6.508,-32.441 -23.934,-52.371 -31.473,-59.777 -4.961,8.41 -15.094,28.222 -15.094,51.008"
         style="fill:#231f20;fill-opacity:1;fill-rule:evenodd;stroke:none"
         id="path48"
         inkscape:connector-curvature="0" /><path
         d="m 533.262,842.227 c -1,-0.778 -24.375,-18.946 -38.067,-52.227 -1.625,-3.922 -2.992,-8.363 -4.289,-13.582 -9.172,-37.766 10.102,-73.348 10.914,-74.867 l 2.438,-4.391 4.078,2.957 c 1.215,0.848 29.922,21.934 42.457,65.543 12.723,44.278 -10.324,74.492 -11.32,75.746 l -2.707,3.485 -3.504,-2.664 z m -35.84,-86.817 c 0,6.141 0.625,12.543 2.176,18.903 1.148,4.773 2.414,8.808 3.847,12.316 9.621,23.375 24.668,38.98 31.555,45.309 3.809,-6.504 10.613,-20.786 10.613,-40.086 0,-7.247 -0.957,-15.247 -3.406,-23.719 -8.914,-31.024 -26.848,-49.969 -34.91,-57.293 -3.551,8.066 -9.875,25.078 -9.875,44.57"
         style="fill:#231f20;fill-opacity:1;fill-rule:evenodd;stroke:none"
         id="path50"
         inkscape:connector-curvature="0" /><path
         d="m 604.203,917.016 c -1.039,-0.629 -25.336,-16.129 -41.461,-49.161 -1.808,-3.73 -3.445,-7.875 -5.031,-13.054 -11.32,-36.469 2.996,-73.242 3.629,-74.793 l 2.027,-5.067 4.594,2.997 c 1.211,0.847 30.473,20.523 46.449,62.691 16.278,42.945 -3.254,73.762 -4.101,75.051 l -2.414,3.664 -3.692,-2.328 z m -41.875,-92.059 c 0,8.691 1.039,18.008 3.895,27.176 1.476,4.738 2.91,8.515 4.504,11.801 11.285,23.043 27.082,37.101 34.289,42.726 2.742,-5.66 6.918,-16.793 6.918,-31.847 0,-9.106 -1.52,-19.567 -5.887,-30.997 -11.164,-29.558 -29.66,-47.566 -38.313,-54.777 -2.144,7.211 -5.406,20.488 -5.406,35.918"
         style="fill:#231f20;fill-opacity:1;fill-rule:evenodd;stroke:none"
         id="path52"
         inkscape:connector-curvature="0" /><path
         d="m 680.137,986.367 c -1.074,-0.523 -26.254,-13.355 -44.903,-46.121 -1.992,-3.519 -3.843,-7.508 -5.769,-12.508 -13.465,-35.14 -3.992,-73.047 -3.586,-74.636 l 1.48,-5.805 5.145,3.098 c 1.258,0.738 31.059,19.054 50.445,59.816 19.793,41.578 3.809,72.941 3.106,74.227 l -2.028,3.882 -3.89,-1.953 z M 631.238,885.723 c 0,11.8 1.52,25.668 6.543,38.832 1.778,4.554 3.41,8.14 5.227,11.289 12.867,22.629 29.328,35.136 36.949,40.058 1.664,-4.66 3.961,-12.73 3.961,-23.828 0,-10.574 -2.117,-23.597 -8.996,-38.015 -13.469,-28.297 -32.543,-45.207 -41.68,-52.227 -0.929,5.469 -2.004,13.91 -2.004,23.891"
         style="fill:#231f20;fill-opacity:1;fill-rule:evenodd;stroke:none"
         id="path54"
         inkscape:connector-curvature="0" /><path
         d="m 760.746,1050.36 c -1.113,-0.45 -27.09,-10.65 -48.355,-43.02 -2.215,-3.4 -4.328,-7.32 -6.508,-11.985 -15.567,-33.808 -10.981,-72.863 -10.77,-74.496 l 0.785,-6.507 5.766,3.144 c 1.305,0.703 31.633,17.609 54.492,56.961 23.262,40.173 10.84,72.053 10.313,73.393 l -1.668,4.05 -4.055,-1.54 z M 703.297,936.207 c 0,13.953 1.699,35.918 10.687,55.41 1.996,4.293 3.922,7.801 5.879,10.803 14.575,22.23 31.696,33.26 39.614,37.47 0.851,-3.56 1.75,-8.84 1.75,-15.83 0,-11.72 -2.637,-27.599 -12.805,-45.13 -15.652,-27 -35.254,-42.867 -44.977,-49.668 -0.078,2.027 -0.148,4.285 -0.148,6.945"
         style="fill:#231f20;fill-opacity:1;fill-rule:evenodd;stroke:none"
         id="path56"
         inkscape:connector-curvature="0" /><path
         d="m 845.629,1109.05 c -1.113,-0.32 -27.859,-7.95 -51.758,-39.94 -2.5,-3.33 -4.871,-7.1 -7.234,-11.39 -17.754,-32.47 -17.949,-72.685 -17.949,-74.388 l 0.039,-7.137 6.406,3.141 c 1.336,0.668 32.215,16.203 58.437,54.144 26.778,38.73 17.93,71.14 17.528,72.47 l -1.219,4.26 -4.25,-1.16 z m -51.16,-55.63 c 2.136,3.96 4.297,7.33 6.543,10.37 16.289,21.78 34.109,31.36 42.324,34.87 0.254,-2.07 0.477,-4.58 0.477,-7.8 0,-11.95 -2.93,-31.11 -17.579,-52.3 -17.793,-25.71 -37.937,-40.615 -48.222,-47.169 0.957,13.059 4.289,39.839 16.457,62.029"
         style="fill:#231f20;fill-opacity:1;fill-rule:evenodd;stroke:none"
         id="path58"
         inkscape:connector-curvature="0" /><path
         d="m 934.059,1162.51 c -1.145,-0.19 -28.547,-5.3 -55.176,-36.77 -26.496,-31.26 -32.707,-82.93 -32.961,-85.11 l -0.887,-7.74 7.098,3.16 c 1.34,0.59 32.805,14.75 62.441,51.33 30.176,37.28 24.895,70.14 24.668,71.5 l -0.781,4.4 -4.402,-0.77 z m -48.379,-42.54 c 18.047,21.34 36.543,29.51 45.047,32.37 0.039,-0.23 0.039,-0.34 0.039,-0.6 0,-10.28 -2.657,-33.47 -23.153,-58.77 -19.816,-24.49 -40.644,-38.43 -51.457,-44.68 2.903,15.86 10.989,49.82 29.524,71.68"
         style="fill:#231f20;fill-opacity:1;fill-rule:evenodd;stroke:none"
         id="path60"
         inkscape:connector-curvature="0" /><path
         d="M 87.2188,720.168 C 87.2188,504.48 203.957,296.98 391.887,178.586 l 7.769,-4.883 5.586,7.293 c 1.594,2.059 2.231,4.024 2.231,5.832 0,4.637 -3.965,8.262 -6.188,10.309 L 390.41,207.59 c -38.726,43.961 -49.117,85.691 -49.117,117.762 0,35.468 12.68,59.152 13.727,60.945 l 3.464,6.262 -4.761,5.363 c -79.422,88.59 -121.36,200 -121.36,322.246 0,268.973 218.817,487.792 487.805,487.792 74.777,0 146.535,-16.46 213.266,-48.93 l 6.914,-3.37 98.052,111.86 -10.88,6.07 c -93.461,52.04 -199.762,79.52 -307.352,79.52 -349.027,0 -632.9492,-283.97 -632.9492,-632.942 z m 20.1212,0 c 0,337.882 274.894,612.812 612.828,612.812 99.973,0 198.664,-24.78 286.392,-71.24 -12.833,-14.64 -63.587,-72.53 -71.38,-81.4 -67.481,31.58 -139.746,47.75 -215.012,47.75 -280.086,0 -507.965,-227.85 -507.965,-507.922 0,-124.953 42.387,-238.949 122.25,-330.453 -4.59,-10.625 -12.765,-33.883 -12.765,-64.695 0,-25.489 5.917,-56.075 23.859,-88.586 C 197.258,354.582 107.34,534.18 107.34,720.168"
         style="fill:#231f20;fill-opacity:1;fill-rule:evenodd;stroke:none"
         id="path62"
         inkscape:connector-curvature="0" /><path
         d="m 942.191,1177.12 c -69.492,33.84 -144.179,50.97 -222.023,50.97 -280.086,0 -507.965,-227.85 -507.965,-507.922 0,-127.289 43.758,-243.352 126.531,-335.664 l 8.696,-9.699 38.621,58.367 -2.059,2.406 c -3.461,0.379 -6.316,0.887 -8.387,1.344 0.536,1.601 1.286,3.672 2.211,6.008 -3.031,3.613 -6.078,7.238 -8.968,10.925 -3.121,-4.96 -6.035,-8.64 -8.067,-10.957 -7.543,8.067 -26.965,31.582 -26.965,60.364 0,0.926 0.039,1.843 0.086,2.761 -36.132,63.606 -54.461,135.293 -54.461,214.145 0,243.004 197.707,440.712 440.727,440.712 59.66,0 117.18,-11.61 171.301,-34.56 5.793,6 11.515,10.73 16.836,14.42 -59.258,26.58 -122.422,40.26 -188.137,40.26 -254.117,0 -460.875,-206.727 -460.875,-460.832 0,-110.199 34.387,-207.074 101.746,-288.293 -3.922,-5.957 -9.394,-14.246 -15.68,-23.703 -73.754,86.887 -112.996,194.289 -112.996,311.996 0,268.973 218.817,487.792 487.805,487.792 71.457,0 140.062,-15.2 204.242,-44.87 -2.687,-5.81 -5.312,-11.51 -7.941,-17.21 5.879,3.32 10.879,5.32 14.258,6.46 0.039,-0.23 0.039,-0.34 0.039,-0.6 0,-7.5 -1.453,-21.86 -10.164,-38.91 l 2.285,-1.12 28.191,61.11 -8.887,4.3"
         style="fill:#231f20;fill-opacity:1;fill-rule:evenodd;stroke:none"
         id="path64"
         inkscape:connector-curvature="0" /><path
         d="m 937.68,1276.68 -48.555,-61.41 c 4.453,-1.53 8.887,-3.12 13.293,-4.76 l 48.191,60.96 c -4.277,1.8 -8.593,3.52 -12.929,5.21"
         style="fill:#231f20;fill-opacity:1;fill-rule:nonzero;stroke:none"
         id="path66"
         inkscape:connector-curvature="0" /><path
         d="m 842.633,1304.97 -28.301,-70.12 c 4.461,-0.81 8.914,-1.69 13.348,-2.62 l 28.203,69.84 c -4.403,1.03 -8.828,1.97 -13.25,2.9"
         style="fill:#231f20;fill-opacity:1;fill-rule:nonzero;stroke:none"
         id="path68"
         inkscape:connector-curvature="0" /><path
         d="m 729.59,1317.61 -6.961,-74.32 c 4.48,-0.02 8.957,-0.09 13.41,-0.23 l 6.953,74.19 c -4.472,0.17 -8.933,0.29 -13.402,0.36"
         style="fill:#231f20;fill-opacity:1;fill-rule:nonzero;stroke:none"
         id="path70"
         inkscape:connector-curvature="0" /><path
         d="m 619.434,1309.21 14.117,-73.1 c 4.398,0.73 8.801,1.42 13.23,2.04 l -14.136,73.16 c -4.422,-0.65 -8.829,-1.35 -13.211,-2.1"
         style="fill:#231f20;fill-opacity:1;fill-rule:nonzero;stroke:none"
         id="path72"
         inkscape:connector-curvature="0" /><path
         d="m 512.539,1280.53 33.418,-67.07 c 4.238,1.5 8.508,2.96 12.793,4.34 l -33.516,67.27 c -4.257,-1.47 -8.488,-2.98 -12.695,-4.54"
         style="fill:#231f20;fill-opacity:1;fill-rule:nonzero;stroke:none"
         id="path74"
         inkscape:connector-curvature="0" /><path
         d="m 411.148,1231.48 49.887,-56.97 c 3.953,2.27 7.945,4.47 11.961,6.64 l -50.148,57.26 c -3.93,-2.27 -7.825,-4.58 -11.7,-6.93"
         style="fill:#231f20;fill-opacity:1;fill-rule:nonzero;stroke:none"
         id="path76"
         inkscape:connector-curvature="0" /><path
         d="M 319.023,1162.74 381.992,1119 c 3.535,2.99 7.113,5.95 10.719,8.85 l -63.387,44.03 c -3.465,-3.01 -6.898,-6.06 -10.301,-9.14"
         style="fill:#231f20;fill-opacity:1;fill-rule:nonzero;stroke:none"
         id="path78"
         inkscape:connector-curvature="0" /><path
         d="m 240.648,1076.42 72.348,-28.16 c 2.957,3.66 5.957,7.28 9,10.85 l -72.898,28.37 c -2.852,-3.66 -5.668,-7.34 -8.45,-11.06"
         style="fill:#231f20;fill-opacity:1;fill-rule:nonzero;stroke:none"
         id="path80"
         inkscape:connector-curvature="0" /><path
         d="m 180.129,975.914 77.848,-10.851 c 2.246,4.21 4.543,8.394 6.886,12.539 l -78.539,10.949 c -2.121,-4.184 -4.187,-8.395 -6.195,-12.637"
         style="fill:#231f20;fill-opacity:1;fill-rule:nonzero;stroke:none"
         id="path82"
         inkscape:connector-curvature="0" /><path
         d="m 140.488,865.645 79.375,7.593 c 1.43,4.649 2.907,9.278 4.453,13.867 l -80.179,-7.667 c -1.27,-4.579 -2.489,-9.176 -3.649,-13.793"
         style="fill:#231f20;fill-opacity:1;fill-rule:nonzero;stroke:none"
         id="path84"
         inkscape:connector-curvature="0" /><path
         d="m 123.297,750.152 76.781,26.684 c 0.535,4.957 1.149,9.887 1.82,14.805 l -77.703,-27.016 c -0.351,-4.816 -0.66,-9.641 -0.898,-14.473"
         style="fill:#231f20;fill-opacity:1;fill-rule:nonzero;stroke:none"
         id="path86"
         inkscape:connector-curvature="0" /><path
         d="m 129.242,633.504 69.367,45.547 c -0.386,5.109 -0.738,10.215 -0.972,15.363 L 127.18,648.133 c 0.629,-4.879 1.312,-9.754 2.062,-14.629"
         style="fill:#231f20;fill-opacity:1;fill-rule:nonzero;stroke:none"
         id="path88"
         inkscape:connector-curvature="0" /><path
         d="m 158.816,519.375 56.317,62.012 c -1.403,5.164 -2.653,10.379 -3.895,15.605 L 153.754,533.68 c 1.629,-4.793 3.312,-9.551 5.062,-14.305"
         style="fill:#231f20;fill-opacity:1;fill-rule:nonzero;stroke:none"
         id="path90"
         inkscape:connector-curvature="0" /><path
         d="m 211.789,410.301 39.832,75.785 c -2.488,4.918 -4.976,9.852 -7.301,14.859 L 203.762,423.77 c 2.617,-4.52 5.293,-9.016 8.027,-13.469"
         style="fill:#231f20;fill-opacity:1;fill-rule:nonzero;stroke:none"
         id="path92"
         inkscape:connector-curvature="0" /><path
         d="m 279.648,319.414 21.29,87.801 c -3.52,4.629 -6.981,9.32 -10.34,14.055 l -21.715,-89.582 c 3.535,-4.122 7.129,-8.223 10.765,-12.274"
         style="fill:#231f20;fill-opacity:1;fill-rule:nonzero;stroke:none"
         id="path94"
         inkscape:connector-curvature="0" /><path
         d="m 927.73,1107.3 c 1.844,-1.21 3.661,-2.42 5.45,-3.63 1.629,0.72 3.25,1.49 4.922,2.1 1.953,0.73 3.875,1.34 5.781,1.95 -4.121,2.71 -7.981,5.76 -11.66,8.98 -1.262,-3.04 -2.785,-6.17 -4.493,-9.4"
         style="fill:#231f20;fill-opacity:1;fill-rule:nonzero;stroke:none"
         id="path96"
         inkscape:connector-curvature="0" /></g></g></svg>