<svg xmlns="http://www.w3.org/2000/svg" width="306.917" height="65.5"><g fill="#FFF"><path d="M32.807 1.343c-17.351 0-31.464 14.114-31.464 31.462 0 17.35 14.113 31.463 31.464 31.463 17.349 0 31.465-14.113 31.465-31.463 0-17.348-14.116-31.462-31.465-31.462zm0 62.048c-16.864 0-30.584-13.721-30.584-30.586 0-16.862 13.72-30.582 30.584-30.582 16.863 0 30.585 13.72 30.585 30.582 0 16.865-13.721 30.586-30.585 30.586z"/><path d="M51.27 30.399c-.436-.91-.138-1.508-.267-2.174-.096-.49-.826-2.108-1.292-3.229-.22-.527 1.127-.398.132-2.303-.028-.058 1.384-.578-.028-1.649-.79-.6-1.346-1.336-1.781-2-.061-.092-.118-.274.01-.389.798-.709.814-1.729-.053-2.253-.625-.377-1.344.006-2.004.434-.218.142-.327.228-.555.135-.115-.047-.339-.204-.539-.342.815-.787.974-1.564.909-1.694-.043-.087-1.381-.388-3.038.298a3.029 3.029 0 00-.118-.064c.683-1.181.3-2.013.249-2.07l-.003-.002c1.241-1.734 2.475-2.889 3.692-3.997l.027-.029c.08-.08.109-.17-.042-.265-.128-.081-.164-.1-.32-.186a27.718 27.718 0 00-13.441-3.469c-15.248 0-27.653 12.406-27.653 27.652 0 8.835 4.483 17.355 11.809 22.648.488.354.826.486.826.486.121.043.247.043.323-.059l.108-.143a.413.413 0 00.098-.254c0-.203-.293-.383-.635-.892-.991-1.47-1.429-3.14-1.429-4.538 0-1.529.466-2.923 1.361-4.084 1.104 1.15 3.512 3.266 3.459 5.188-.059 2.161-2.079 2.055-1.644 3.675.273 1.018 1.034.598 1.166 1.369.228 1.337 2.024 2.189 2.808 2.072.189-.027.351.129.726.511.534.542 1.85.469 2.433.362.555-.103 1.252.404 2.411.276 1.452-.159 1.821-.272 2.441-.28 1.049-.017 6.754-.102 10.81.535.699.108.921-.207.608-.752-1.471-2.561-1.674-4.734-.826-7.473 1.498.102 3.651.507 6.487-1.198 1.006-.604 1.568-1.894 1.521-2.854-.032-.623-.305-1.412-.144-2.02.217-.814.375-.797.61-.962 1.083-.762.302-1.366.135-1.428.327-.134.686-.845.308-1.374-.193-.206-.783-1.864-.104-2.209.734-.373 1.572-.531 2.416-.901.58-.241 1.043-.919.712-1.815-.398-1.072-2.612-6.147-2.679-6.29zM20.739 55.02c-.212.043-.892.068-.739-.824.094-.551.692-.781.995-.469-.065.428-.212.846-.256 1.293zm26.069-37.745c.357-.226.742-.321.969-.097.786.776-.854 1.213-.512 1.81.56.979 1.45 1.916 2.236 2.521.37.285.423.925-.989 1.218-1.421.294-7.081 1.785-10.067 4.949-3.739 3.962-6.116 9.093-6.44 8.388-.326-.711-1.075-.826-.959-1.027 5.37-9.25 13.782-16.516 15.762-17.762zm2.462 6.499c-.308.882-2.745 1.665-2.63 1.046.052-.28.006-.648.191-.68.271-.047 1.041-.315 2.238-.622.12-.03.277.039.201.256zm-6.184 1.602c-.062-.36 2.56-1.242 2.65-.981.168.481-.542 1.774-1.419 2.098-.997.367-1.411.258-1.373.115.069-.259.198-.9.142-1.232zm-6.082 13.666c-1.205.739-1.859-.673-2.03-.92-.073-.106-.266-.417-.161-.946.082-.419.151-.986-.123-2.787-.121-.791 1.518-2.756 1.886-3.1.384-.356.94.178.977.758.068 1.104-.55 1.684-1.182 2.152-.775.578-.923 1.328-.775 1.529.058.078.405.082.558-.244.468-.994 1.802-1.496 2.016-2.016.332-.814.089-1.336.057-1.678-.028-.299.264-.374.483-.342.284.043.41.429.554.804.863 2.248-1.308 3.606-1.658 4.14-.164.249.334 2.077-.602 2.65zm1.817-8.72c-.646.438-1.577-.156-1.392-.422 1.2-1.712 2.799-2.904 3.438-3.302 1.028-.64 1.138-.685 1.191-.323.032.218.044 1.338-.785 2.247-.687.755-1.376.691-1.73.771-.239.055-.224.691-.722 1.029zM33.05 38c-.296-.063-.407-.646-.347-.873.134-.51.915-1.563 1.197-1.933.07-.092.215-.006.23.104.17 1.222-.001 2.939-1.08 2.702zm9.64-22.215c1.083-.487 2.131-.495 2.243-.481.246.029-.547 1.439-1.961 2.046-1.457.626-2.546.739-2.669.678-.186-.092 1.235-1.723 2.387-2.243zM17.732 39.233c-.433-.498-.834-.771-.875-.741-.12.084-.82 1.28-1.063 2.679-1.364-2.607-2.119-5.242-2.242-8.366-.419-10.608 8.466-19.151 19.308-19.113 2.474.009 4.507.466 6.729 1.368-.497.621-.858 1.366-1.104 1.99-.012-.575-.162-1.022-.12-1.381.026-.222-1.536.265-2.923 2.474a5.381 5.381 0 00-.646 1.6c-.028-.828-.223-1.474-.279-1.458-.143.038-1.726.691-2.551 2.625a6.02 6.02 0 00-.328 1.027c-.068-.59-.221-.978-.27-.976-.104.004-1.763.687-2.58 2.674-.19.462-.291.935-.338 1.373-.147-.691-.415-1.115-.5-1.008-.572.727-1.691 1.049-2.286 2.88-.14.431-.195.86-.202 1.261-.246-.619-.593-.977-.673-.96-.161.034-1.852 1.641-2.104 3.26-.1.639-.054 1.231.045 1.729-.323-.521-.752-.904-.927-1.436-.266.142-1.696 1.487-1.742 3.21a6.56 6.56 0 00.22 1.832c-.477-.864-1.151-1.271-1.226-1.225-.124.076-1.192 1.23-1.441 3.307-.059.488.001.953.118 1.375zM39.93 15.358c.853-1.011 2.301-1.824 2.464-1.725.166.103-.243 1.665-1.178 2.585-.944.929-2.404 1.833-2.574 1.822-.17-.011.521-1.77 1.288-2.682zm-2.767 3.906c-.828.672-1.204 1.117-1.688 1.904-.165.268-.566-1.49.51-3.178.66-1.034 1.973-1.962 1.943-1.839-.094.412.637 1.975-.765 3.113zm-3.035 2.251c-1.014 1.512-1.071.995-2.181 2.473-.062.082-.083-1.929.313-2.813.624-1.396 1.707-2.218 1.868-2.246.161-.029.559 1.752 0 2.586zm-3.319 3.022c-.521.91-.996.701-1.863 1.992-.096.143-.325-1.067.194-2.702.4-1.261 1.641-2.044 1.773-2.075.199-.048.516 1.704-.104 2.785zm-3.091 3.202c-.531 1.155-.872 1.193-1.488 1.914-.106.124-.567-1.1-.121-2.636.358-1.23 1.183-1.686 1.581-2.103.157-.163.593 1.598.028 2.825zm-2.51 1.982c0 .353-.044.553-.145.898-.378 1.301-1.146 1.849-1.563 2.437-.167-.385-.475-.931-.477-1.756-.004-1.572.954-2.913 1.555-3.336.226-.01.63.947.63 1.757zm-2.562 3.836c-.028 1.83-1.177 2.901-1.52 3.241-.213-.362-.632-1.296-.661-2.274-.055-1.885.725-2.554 1.063-2.918.161.54 1.134.966 1.118 1.951zm-3.622 1.877c.526.266 1.163 1.032 1.223 2.453.06 1.428-.962 2.635-1.361 2.824-.278-1.09-.806-1.318-.796-2.4.01-1.182.61-2.479.934-2.877zm2.183 3.76c1.372-.596 2.87-.504 2.933-.445s-.438 1.745-1.772 2.461c-1.332.714-2.835.779-2.972.609-.077-.094.438-2.027 1.811-2.625zm-.106-1.012c.085-.455.899-1.963 2.123-2.509 1.226-.546 2.646-.506 2.807-.438.161.066-.51 1.674-1.744 2.265-1.382.66-1.934.274-3.186.682zm2.058-3.535c.056-.14 1.055-1.934 2.228-2.482 1.163-.545 2.567-.43 2.664-.398.096.031-.534 1.617-1.865 2.277-1.316.652-3.083.742-3.027.603zm2.674-3.583c-.096-.072 1.32-1.926 2.503-2.473 1.04-.48 2.398-.379 2.513-.303.113.075-.554 1.636-1.925 2.235-1.308.576-2.997.616-3.091.541zm3.203-3.543c-.078-.039 1.004-1.883 2.219-2.351 1.161-.445 2.311-.042 2.664-.019.284.019-.398 1.354-1.991 1.942-1.328.491-2.688.529-2.892.428zm3.597-3.413c.021-.085 1.21-1.76 2.436-2.185 1.165-.403 2.592-.133 2.745-.068.152.063-.826 1.524-2.323 1.975-1.348.404-2.88.364-2.858.278zm3.632-2.95c-.157-.109 1.278-1.715 2.446-2.159 1.143-.435 2.377-.354 2.477-.298.099.057-.749 1.447-2.127 2.006-1.296.524-2.639.561-2.796.451zM16.389 53.883C9.91 48.723 6.033 40.93 6.033 32.805c0-14.762 12.01-26.773 26.774-26.773 4.307 0 8.628 1.079 12.421 3.055.075.04.088.144.023.2-1.114.973-2.661 2.882-3.051 3.414a21.982 21.982 0 00-9.394-2.085c-12.235 0-22.192 9.954-22.192 22.189 0 5.459 1.851 10.44 5.341 14.438a7.247 7.247 0 00-.558 2.826 7.67 7.67 0 00.992 3.814zm.043-7.445l-.014.013c-3.224-3.798-4.923-8.501-4.923-13.646 0-11.751 9.56-21.311 21.312-21.311 3.102 0 6.081.647 8.869 1.926-.367.171-.79.421-1.225.778-2.453-1.039-4.924-1.527-7.645-1.527-11.102 0-20.136 9.032-20.136 20.134 0 4.815 1.502 9.047 4.445 12.598-.169.257-.407.619-.683 1.035zm1.062-1.672c-.391-.371-1.234-1.303-1.315-2.504a2.557 2.557 0 01-.006-.175c-.003-1.291.567-2.562.71-2.702.143-.143 1.599.99 1.621 2.614.019 1.409-.626 2.218-1.01 2.767zm2.403-2.16c1.157-.549 2.882-.418 2.787-.342-.095.075-.549 1.752-1.854 2.406-1.301.652-2.163.479-2.631.389.703-.767.556-1.91 1.698-2.453zm1.565 13.918c-.196-.789-.117-1.877.151-2.17.52-.254 1.47-.351 1.485-.047.026.482-.326 1.631.088 3.062-.095.225-1.389.128-1.724-.845zm.086-3.311c-.102-.595.471-1.166.458-2.463-.015-1.592-1.978-3.773-3.307-5.178.624 0 1.441-.147 2.358-.572 1.978-.916 2.366-3.02 2.424-3.105.026-.039-.442-.131-1.117-.141.073-.035.146-.072.22-.111 1.936-1.037 2.442-3.281 2.351-3.33-.037-.021-.52-.097-1.195-.078.189-.063.385-.135.586-.215 2.048-.813 2.62-3.094 2.547-3.166-.032-.033-.441-.115-1.038-.131.182-.07.367-.15.557-.244 1.87-.93 2.518-3.02 2.421-3.088-.043-.03-.422-.104-.975-.112a7.138 7.138 0 001.349-.439c2.004-.877 2.65-2.794 2.564-2.875-.037-.035-.377-.129-.888-.171.4-.089.837-.212 1.303-.371 1.981-.677 2.782-2.57 2.664-2.581-.268-.025-.637-.155-1.113-.238a7.49 7.49 0 001.957-.4c2.141-.724 2.898-2.012 2.937-2.57.003-.037-.256-.149-.673-.241.491-.089.983-.21 1.39-.375 1.998-.81 2.83-2.773 2.896-2.936.363-.119.754-.267 1.164-.452.209-.095.399-.194.575-.298.098.074.254.186.485.335.302.194.409.239.26.367-6.804 5.793-11.901 13.112-14.124 16.669-.063.101-.18.082-.368.069-2.383-.158-3.733 2.678-2.667 5.336-.136.541-1.266 1.584-1.352 1.66-.085.076-.313.407.074.373.557-.051 1.268-.941 1.607-1.343.141.177.665.612.412.859-2.024 1.987-4.028 3.057-4.186 3.133-.758.37 1.266.626 4.713-2.49.203-.184.443.72.751 1.104-.592 1.955.867 5.727.64 6.91-.039.207-.163.791-.852.806-3.416.069-3.752-.086-5.489.426-.811.239-.598.774-.01.614.667-.182 1.366-.451 5.064-.221.903.057 1.937-.184 1.943-1.709.007-1.385-1.093-5.51-.722-6.074.491.369.846.384 1.033.416-.049 1.347 2.118 5.695 1.152 8.094-.358.891-1.931.824-4.623.559-4.577-.453-6.063.537-6.156-.012zm10.52 2.958c-1.782.618-2.484-1.466-2.191-1.915.176-.27 1.301.307 2.176-.258.675-.435 1.046 1.815.015 2.173zm-8.087 1.302c-.25-1.104-.35-3.015.109-3.438.09-.084 1.462-.281 1.437.032-.105 1.315-.637 2.785.365 4.25.374.547-1.576.634-1.911-.844zm3.399 1.258c-.479-.119-1.799-2.221-.725-4.728.114-.267 1.761-.101 2.037-.019.275.084-.227 2.056 2.036 2.929.232.091-.01 2.648-3.348 1.818zm14.157-7.002c-.766 2.647-1.15 3.705-.002 6.582.153.381.269.67-.067.611-2.314-.396-2.814-.777-10.083-.16-.523.043.17-1.015.085-1.734.663-.086 1.725-.389 1.95-1.471.272-1.312-.642-2.273-.545-2.463 1.03-2.01-.067-4.236-.938-7.969-.081-.35.121-.502.274-.336 4.67 5.055 7.646 6.059 9.254 6.536.16.049.128.23.072.404zM53.48 37.923c-.977.863-2.477.935-3.082 1.485-.316.287-.459.74-.118 1.549.197.465.333.521-.337.701-1.088.291-1.236 1.719-2.621 1.457-.555-.104-.156.25.043.27.793.074 1.106-.148 1.384-.408.278-.261.648-.729 1.074-.891.439-.166.883-.154.891.174.006.252-.549.648-.781.758.282.146 1.149.588.41 1.09-.576.393-1.371-.15-1.485-.219-.17-.099-.497-.049-.389.084.428.522 1.576.387 1.37.664-1.06 1.424-.197 2.256-.52 3.688-.327 1.451-2.313 2.246-3.843 2.523-5.203.938-10.264-3.488-13.229-6.824.27-.633.235-1.459-.036-1.166-.256.277-.213.74-.831.896-1.192.301-1.706-1.77-2.075-2.132-1.45-1.42-2.024-3.427-1.159-5.181.874-1.771 2.69-1.416 3.415-.344.902 1.332.485 2.09.997 2.488.719.561 1.442.061 1.637.008.547-.15.506 1.297 2.375 1.229 2.011-.071 1.783-3.198 2.067-3.477 2.58-2.516 1.263-4.761.794-5.283-.126-.14.286-1.063.438-1.098 1.516-.335 2.371-1.303 2.833-2.326 0 0 2.517-.042 3.412-1.854.239-.484.98.467 2.661-.854.188-.149.367-.078.438.096 1.079 2.648 1.534 3.38 1.451 4.73-.061.981 2.62 6.433 2.815 6.902.219.53.251 1.045.001 1.265z"/><path d="M47.425 28.322c-1.465.055-3.166 1.849-3.722 2.098-.583.262-.375.427-.036.303.729-.266 1.769-1.38 3.204-1.898 1.133-.409 1.06.523 1.485.472.199-.025-.085-1.005-.931-.975zM47.756 29.76c-.121.028.128.654-.509.693-1.377.085-2.468 1.389-3.308 1.78-.839.391-1.014.385-1.139.418-.112.03-.07.174.022.187 3.511.47 4.86.341 4.89.213.058-.241-.195-.362-.143-.518.132-.392.197-1.132.047-1.641-.063-.24.521-.08.521-.403 0-.176-.176-.78-.381-.729zm-.54 2.771c-.067.273-1.635.148-2.487.074-.203-.018-.544-.049.106-.437.512-.306 1.215-.821 2.136-.999a.22.22 0 01.261.181 2.84 2.84 0 01-.016 1.181zM51.8 37.533c-.268-.005-1.35.489-1.755.749-.235.148-1.334.826-1.256-.245.028-.376.271-1.308.266-1.563-.009-.387-.319-.234-.325-.004-.014.537-.121.946-.232 1.577-.095.54.375 1.208 1.104.819.605-.322 1.431-.877 2.163-1.018.186-.035.22-.312.035-.315zM31.463 41.37c-.208-.078-.15.352-.432.304-.368-.063-.06-.394-.539-.901-.238-.252-.837-.357-1.279-1.064-.699-1.119-.099-3.613.925-3.256.568.199.469 1.521.298 2.417-.104.552.754.823.831.631.131-.324-.315-.293-.418-.589-.157-.454 1.052-2.273-.527-2.801-1.153-.385-1.912 1.066-1.773 2.673.117 1.354 1.018 1.913 1.532 2.104.695.258.169 1.209 1.106 1.213.413.001.5-.647.276-.731zM40.688 11.352a.12.12 0 00.138-.039l1.95-2.467a.123.123 0 00-.049-.189 16.29 16.29 0 00-.331-.132.123.123 0 00-.141.038l-1.959 2.478a.121.121 0 00.056.19l.336.121zM37.069 10.346c.112.021.224.044.335.067a.123.123 0 00.139-.073l1.142-2.825a.123.123 0 00-.086-.165 25.726 25.726 0 00-.38-.081.074.074 0 00-.083.044l-1.158 2.868a.121.121 0 00.091.165zM33.048 9.951c.113.001.227.003.339.006a.122.122 0 00.125-.11l.281-2.999a.122.122 0 00-.117-.134l-.343-.009a.124.124 0 00-.125.111l-.28 3.002a.12.12 0 00.12.133zM29.139 10.244l.336-.051a.123.123 0 00.102-.144l-.571-2.956a.124.124 0 00-.138-.099c-.113.018-.226.035-.338.054a.124.124 0 00-.101.144L29 10.146a.123.123 0 00.139.098zM25.149 11.156a.122.122 0 00.148.062l.324-.11a.121.121 0 00.07-.17l-1.354-2.716a.124.124 0 00-.149-.062l-.325.116a.122.122 0 00-.067.169l1.353 2.711zM21.421 12.88a.12.12 0 00.151.025c.101-.058.201-.113.303-.169a.121.121 0 00.033-.187l-2.023-2.313a.121.121 0 00-.154-.024l-.299.178a.121.121 0 00-.028.185l2.017 2.305zM17.957 15.327a.123.123 0 00.148-.007l.271-.225a.121.121 0 00-.008-.194l-2.558-1.777a.122.122 0 00-.15.009l-.265.233a.122.122 0 00.013.191l2.549 1.77zM14.937 18.438a.123.123 0 00.139-.037c.074-.093.15-.185.227-.275a.12.12 0 00-.049-.191l-2.941-1.146a.122.122 0 00-.141.039c-.073.094-.145.188-.216.283a.123.123 0 00.053.188l2.928 1.139zM9.379 21.653l3.152.44c.051.007.1-.019.124-.063.057-.106.114-.213.173-.318a.121.121 0 00-.089-.18l-3.169-.441a.123.123 0 00-.126.066c-.054.107-.106.215-.158.322a.121.121 0 00.093.174zM7.655 26.433l3.214-.308a.12.12 0 00.104-.085l.111-.351a.12.12 0 00-.127-.159l-3.232.309a.118.118 0 00-.106.089l-.095.354c-.02.08.046.158.131.151zM10.093 30.252c.014-.125.028-.25.045-.375a.122.122 0 00-.161-.131l-3.132 1.09a.123.123 0 00-.082.107c-.009.123-.017.246-.023.369-.005.087.08.15.162.122l3.11-1.081a.117.117 0 00.081-.101zM10.015 34.528a12.56 12.56 0 01-.025-.387.122.122 0 00-.188-.096l-2.838 1.863a.122.122 0 00-.054.117c.016.125.033.25.052.375a.122.122 0 00.188.084l2.812-1.846a.117.117 0 00.053-.11zM10.725 38.805a17.531 17.531 0 01-.099-.395.122.122 0 00-.209-.053l-2.308 2.541a.12.12 0 00-.025.121c.042.123.084.244.128.367a.123.123 0 00.206.039l2.279-2.51a.114.114 0 00.028-.11zM11.905 42.6l-1.628 3.096a.116.116 0 00.003.117c.067.117.135.231.204.347.05.081.169.077.213-.007l1.61-3.063a.116.116 0 00.001-.11 33.08 33.08 0 01-.187-.377.12.12 0 00-.216-.003zM14.194 46.079a.121.121 0 00-.217.044l-.872 3.594a.126.126 0 00.026.109l.274.313a.122.122 0 00.21-.053l.861-3.555a.122.122 0 00-.021-.102 24.486 24.486 0 01-.261-.35z"/></g><g fill="#FFF"><path d="M80.182 30.1h-.049l-3.025-8.775h-3.133v11.906h2.389v-8.145l.049-.007 2.943 8.152h1.619l2.945-8.135.048.007v8.128h2.389V21.325h-3.116zM95.548 21.325h-2.444l-4.016 11.906h2.494l.802-2.567h3.859l.81 2.567h2.494l-3.999-11.906zm-2.576 7.467l1.324-4.195h.05l1.315 4.195h-2.689zM111.288 33.231l-3.738-6.002 3.534-5.904h-2.781l-2.232 4.219-2.2-4.219h-2.764l3.532 5.904-3.623 6.002h2.789l2.299-4.293 2.297 4.293zM126.722 22.372c-.784-.698-1.861-1.047-3.229-1.047h-4.556v11.906h2.389v-4.317h2.167c1.368 0 2.445-.346 3.229-1.038.785-.692 1.178-1.608 1.178-2.748s-.392-2.06-1.178-2.756zm-1.716 4.157c-.343.363-.848.544-1.513.544h-2.167v-3.909h2.167c.671 0 1.177.188 1.517.561.341.373.512.847.512 1.419-.001.561-.173 1.023-.516 1.385zM137.208 31.399h-4.377V21.325h-2.389v11.906h6.766zM142.724 21.325l-4.014 11.906h2.493l.803-2.567h3.859l.811 2.567h2.494l-4-11.906h-2.446zm-.131 7.467l1.324-4.195h.051l1.315 4.195h-2.69zM154.042 25.208l.049-.006 4.799 8.029h2.388V21.325h-2.388v8.014l-.049.009-4.799-8.023h-2.389v11.906h2.389zM172.598 22.216c-.816-.709-1.951-1.063-3.4-1.063-1.391 0-2.516.462-3.369 1.387-.857.924-1.285 2.111-1.285 3.561v2.364c0 1.455.439 2.643 1.316 3.561.879.919 2.031 1.378 3.459 1.378 1.4 0 2.5-.359 3.297-1.079.797-.72 1.184-1.715 1.16-2.984l-.016-.05h-2.314c0 .774-.176 1.349-.527 1.722-.352.374-.885.561-1.6.561-.752 0-1.34-.289-1.762-.867-.424-.577-.635-1.324-.635-2.24v-2.381c0-.909.201-1.652.602-2.228.4-.575.959-.863 1.674-.863.768 0 1.336.187 1.705.561.367.373.551.941.551 1.705h2.322l.018-.05c.021-1.289-.377-2.287-1.196-2.995zM186.272 21.325h-2.953l-3.264 4.864h-.67v-4.864h-2.386v11.906h2.386V28.26h.875l3.289 4.971h3.041l-4.439-6.371zM196.534 33.252h-2.447V21.375h2.447v11.877zM209.713 33.252h-2.449l-4.764-7.815v7.815h-2.447V21.375h2.447l4.773 7.832v-7.832h2.438v11.878h.002zM219.178 30.137c0-.462-.164-.817-.488-1.064-.326-.248-.914-.509-1.764-.783-.848-.274-1.52-.545-2.016-.812-1.348-.729-2.023-1.711-2.023-2.945 0-.642.182-1.214.543-1.717s.883-.896 1.559-1.179c.678-.283 1.438-.425 2.281-.425.848 0 1.604.154 2.268.461.664.308 1.178.741 1.545 1.302.367.56.551 1.196.551 1.908h-2.445c0-.544-.172-.967-.516-1.269-.342-.302-.824-.452-1.443-.452-.598 0-1.063.126-1.395.379s-.498.586-.498.999c0 .387.193.71.584.972.389.261.961.505 1.717.733 1.393.419 2.406.938 3.043 1.559.637.62.953 1.393.953 2.316 0 1.028-.389 1.834-1.166 2.419s-1.824.877-3.141.877c-.914 0-1.746-.167-2.496-.502-.75-.334-1.322-.792-1.717-1.374-.396-.582-.592-1.257-.592-2.023h2.455c0 1.311.783 1.966 2.35 1.966.582 0 1.037-.118 1.363-.354.324-.236.488-.568.488-.992zM232.899 23.356h-3.639v9.896h-2.447v-9.896h-3.59v-1.982h9.676v1.982zM237.731 33.252h-2.447V21.375h2.447v11.877zM249.54 23.356h-3.639v9.896h-2.447v-9.896h-3.59v-1.982h9.676v1.982zM260.758 21.375v7.823c0 1.3-.406 2.328-1.219 3.084-.813.756-1.924 1.134-3.334 1.134-1.387 0-2.488-.367-3.303-1.102-.816-.733-1.232-1.742-1.248-3.026v-7.913h2.447v7.84c0 .777.186 1.345.559 1.701s.887.534 1.545.534c1.377 0 2.076-.724 2.098-2.17v-7.905h2.455zM272.543 23.356h-3.639v9.896h-2.447v-9.896h-3.59v-1.982h9.676v1.982zM281.92 28.104h-4.699v3.182h5.516v1.966h-7.963V21.375h7.945v1.982h-5.498v2.831h4.699v1.916z"/></g><g fill="#FFF"><path d="M79.388 42.182h-3.785v3.984h-1.189v-9.021h5.588v.974h-4.398v3.092h3.785l-.001.971zM89.002 41.948c0 .883-.148 1.654-.445 2.314-.298.657-.719 1.161-1.265 1.508-.546.348-1.182.521-1.909.521-.71 0-1.34-.177-1.889-.522-.55-.351-.977-.849-1.279-1.494-.305-.646-.461-1.396-.469-2.246v-.65c0-.867.15-1.635.453-2.299.301-.666.728-1.174 1.279-1.527.551-.354 1.182-.529 1.893-.529.723 0 1.36.174 1.912.523.551.348.976.855 1.273 1.518.297.662.445 1.435.445 2.314l.001.569zm-1.184-.582c0-1.07-.215-1.893-.645-2.465-.43-.57-1.03-.857-1.803-.857-.752 0-1.344.287-1.775.857-.432.572-.653 1.367-.666 2.383v.664c0 1.037.218 1.852.654 2.443.436.594 1.035.891 1.799.891.77 0 1.363-.281 1.785-.84.422-.562.639-1.363.65-2.408l.001-.668zM94.729 42.518H92.61v3.648h-1.196v-9.021H94.4c1.018 0 1.799.232 2.346.693.548.463.821 1.137.821 2.021 0 .561-.151 1.051-.456 1.469-.303.416-.726.729-1.267.936l2.119 3.828v.074h-1.276l-1.958-3.648zm-2.119-.973h1.828c.591 0 1.061-.154 1.409-.461.35-.305.523-.715.523-1.229 0-.56-.166-.986-.498-1.285-.333-.297-.813-.449-1.441-.453H92.61v3.428zM109.879 38.118h-2.9v8.049h-1.184v-8.049h-2.894v-.973h6.978v.973zM118.785 46.167h-1.195v-4.17h-4.549v4.17h-1.189v-9.021h1.189v3.879h4.549v-3.879h1.195v9.021zM126.632 41.997h-3.909v3.197h4.541v.973h-5.73v-9.021h5.669v.974h-4.479v2.905h3.909l-.001.972zM135.814 42.145c-1.021-.293-1.764-.651-2.229-1.08a2.066 2.066 0 01-.697-1.584c0-.711.284-1.299.853-1.762.567-.465 1.306-.697 2.215-.697.62 0 1.173.119 1.657.359.486.238.861.57 1.129.99.266.422.398.883.398 1.383h-1.195c0-.547-.174-.979-.521-1.291s-.837-.469-1.469-.469c-.587 0-1.044.129-1.372.387-.328.26-.492.619-.492 1.078 0 .367.155.68.467.934.313.254.844.488 1.593.699.75.211 1.337.443 1.76.697.423.254.737.551.942.889.204.34.307.738.307 1.195 0 .732-.285 1.318-.855 1.758-.57.439-1.332.66-2.287.66a4.23 4.23 0 01-1.734-.357c-.537-.236-.951-.563-1.242-.975a2.39 2.39 0 01-.438-1.408h1.196c0 .547.202.977.604 1.293s.94.475 1.613.475c.629 0 1.109-.129 1.444-.385s.502-.604.502-1.047c0-.443-.155-.785-.465-1.025-.309-.242-.871-.481-1.684-.717zM147.552 38.118h-2.899v8.049h-1.185v-8.049h-2.895v-.973h6.979v.973zM155.876 37.145v6.135c-.004.853-.271 1.548-.803 2.089-.529.541-1.25.844-2.158.909l-.316.015c-.987 0-1.773-.269-2.36-.801-.587-.531-.885-1.267-.894-2.199v-6.146h1.179v6.108c0 .652.18 1.16.539 1.521.358.361.87.543 1.536.543.674 0 1.188-.18 1.547-.539.355-.358.535-.864.535-1.52v-6.115h1.195zM158.388 46.167v-9.021h2.547c.785 0 1.479.174 2.082.521.604.346 1.068.84 1.396 1.48.328.64.494 1.375.5 2.205v.576c0 .852-.166 1.598-.494 2.237a3.48 3.48 0 01-1.406 1.476c-.608.342-1.318.518-2.129.524l-2.496.002zm1.19-8.049v7.076h1.251c.917 0 1.631-.285 2.141-.855.512-.57.767-1.383.767-2.438v-.527c0-1.025-.24-1.822-.722-2.391s-1.164-.857-2.049-.865h-1.388zM170.094 41.674l2.355-4.529h1.35l-3.109 5.658v3.363h-1.19v-3.363l-3.111-5.658h1.363l2.342 4.529zM186.317 41.948c0 .883-.15 1.654-.447 2.314-.297.657-.719 1.161-1.264 1.508-.545.348-1.182.521-1.908.521-.711 0-1.34-.177-1.891-.522-.551-.351-.977-.849-1.279-1.494-.303-.646-.459-1.396-.469-2.246v-.65c0-.867.15-1.635.453-2.299.303-.666.729-1.174 1.279-1.527s1.182-.529 1.893-.529c.725 0 1.359.174 1.912.523.553.348.977.855 1.273 1.518s.445 1.435.445 2.314v.57h.003zm-1.184-.582c0-1.07-.215-1.893-.645-2.465-.432-.57-1.031-.857-1.803-.857-.754 0-1.346.287-1.775.857-.432.572-.654 1.367-.666 2.383v.664c0 1.037.217 1.852.652 2.443.436.594 1.035.891 1.801.891.768 0 1.363-.281 1.785-.84.42-.562.637-1.363.648-2.408v-.668h.003zM193.709 42.182h-3.785v3.984h-1.189v-9.021h5.59v.974h-4.398v3.092h3.785v.972h-.003z"/><g><path d="M80.702 56.299c-.112.953-.464 1.689-1.057 2.209-.593.518-1.381.777-2.364.777-1.065 0-1.92-.383-2.563-1.146-.642-.764-.963-1.787-.963-3.068v-.866c0-.838.15-1.576.449-2.211.299-.638.725-1.125 1.273-1.468.549-.34 1.186-.51 1.908-.51.959 0 1.727.269 2.305.801.578.535.916 1.277 1.011 2.224h-1.196c-.104-.722-.327-1.244-.672-1.565-.346-.324-.828-.484-1.447-.484-.76 0-1.355.281-1.787.844-.432.561-.648 1.361-.648 2.398v.875c0 .979.205 1.76.614 2.338.409.578.981.869 1.716.869.661 0 1.168-.15 1.521-.449.354-.301.588-.822.703-1.564h1.197v-.004zM86.23 55.512h-2.119v3.648h-1.195v-9.021h2.986c1.016 0 1.798.232 2.346.693.547.463.82 1.137.82 2.021 0 .561-.152 1.051-.455 1.469-.304.416-.727.729-1.268.936l2.119 3.828v.074h-1.276l-1.958-3.648zm-2.119-.972h1.828c.59 0 1.061-.154 1.41-.461.348-.305.523-.715.523-1.229 0-.56-.167-.986-.5-1.285-.332-.297-.813-.449-1.439-.453h-1.822v3.428zM92.608 59.161h-1.19V50.14h1.19v9.021zM96.917 50.139l2.949 7.361 2.95-7.361h1.542v9.021h-1.189v-3.514l.111-3.791-2.961 7.305h-.911l-2.956-7.287.118 3.773v3.514h-1.19v-9.021h1.537zM112.154 54.991h-3.91v3.197h4.543v.973h-5.732V50.14h5.67v.973h-4.48v2.906h3.91l-.001.972zM114.646 60.958l-.65-.445c.389-.541.591-1.1.607-1.674v-1.035h1.121v.898c0 .418-.102.836-.307 1.252a2.879 2.879 0 01-.771 1.004zM124.347 55.139c-1.021-.293-1.764-.652-2.228-1.08a2.066 2.066 0 01-.697-1.584c0-.711.284-1.299.853-1.762.567-.465 1.306-.697 2.215-.697.619 0 1.172.119 1.657.359.485.238.861.57 1.128.99.266.422.399.883.399 1.383h-1.196c0-.547-.173-.979-.52-1.291-.348-.313-.837-.469-1.469-.469-.587 0-1.045.129-1.373.387-.328.26-.492.619-.492 1.078 0 .367.156.68.468.934s.843.488 1.593.699 1.336.443 1.76.697c.423.254.736.551.941.889.205.34.307.738.307 1.195 0 .732-.285 1.318-.855 1.758-.569.439-1.332.66-2.286.66-.62 0-1.198-.119-1.735-.357-.537-.236-.951-.563-1.242-.975a2.389 2.389 0 01-.437-1.408h1.196c0 .547.201.977.604 1.293.403.316.941.475 1.614.475.628 0 1.109-.129 1.444-.385.334-.256.502-.605.502-1.047 0-.443-.155-.785-.465-1.025-.311-.242-.872-.481-1.686-.717zM134.913 54.991h-3.909v3.197h4.541v.973h-5.73V50.14h5.669v.973h-4.479v2.906h3.909l-.001.972zM144.259 56.299c-.111.953-.465 1.689-1.057 2.209-.594.518-1.381.777-2.364.777-1.065 0-1.92-.383-2.563-1.146-.642-.764-.964-1.787-.964-3.068v-.866c0-.838.15-1.576.449-2.211.3-.638.725-1.125 1.273-1.468.55-.34 1.186-.51 1.908-.51.959 0 1.728.269 2.306.801.578.535.915 1.277 1.012 2.224h-1.197c-.104-.722-.326-1.244-.672-1.565-.346-.324-.827-.484-1.447-.484-.76 0-1.355.281-1.787.844-.432.561-.647 1.361-.647 2.398v.875c0 .979.204 1.76.614 2.338.408.578.98.869 1.716.869.661 0 1.168-.15 1.521-.449.354-.301.588-.822.703-1.564h1.196v-.004zM152.83 50.139v6.135c-.004.853-.271 1.547-.803 2.088s-1.25.845-2.159.91l-.314.015c-.988 0-1.775-.269-2.361-.802-.586-.53-.885-1.266-.893-2.198v-6.146h1.178v6.108c0 .651.18 1.16.539 1.521.359.361.871.543 1.537.543.673 0 1.188-.18 1.545-.539.356-.358.537-.864.537-1.52v-6.115h1.194zM158.613 55.512h-2.119v3.648h-1.196v-9.021h2.986c1.018 0 1.799.232 2.346.693.549.463.821 1.137.821 2.021 0 .561-.151 1.051-.456 1.469-.304.416-.726.729-1.267.936l2.118 3.828v.074h-1.276l-1.957-3.648zm-2.119-.972h1.828c.59 0 1.062-.154 1.409-.461.349-.305.523-.715.523-1.229 0-.56-.168-.986-.5-1.285-.332-.297-.813-.449-1.439-.453h-1.821v3.428zM164.991 59.161h-1.189V50.14h1.189v9.021zM173.995 51.112h-2.898v8.049h-1.184v-8.049h-2.896v-.973h6.979v.973h-.001zM178.68 54.668l2.355-4.529h1.352l-3.111 5.658v3.363h-1.189v-3.363l-3.109-5.658h1.363l2.339 4.529zM192.868 56.801h-3.779l-.85 2.359h-1.229l3.445-9.021h1.041l3.451 9.021h-1.221l-.858-2.359zm-3.42-.974h3.066l-1.535-4.219-1.531 4.219zM203.694 59.161h-1.195l-4.541-6.951v6.951h-1.197V50.14h1.197l4.553 6.982V50.14h1.186v9.021h-.003zM206.405 59.161V50.14h2.545c.785 0 1.479.174 2.082.521.604.346 1.07.84 1.396 1.48.328.639.494 1.375.498 2.205v.575c0 .853-.164 1.599-.49 2.238a3.498 3.498 0 01-1.406 1.476c-.609.342-1.318.518-2.129.524l-2.496.002zm1.187-8.049v7.076h1.252c.916 0 1.631-.285 2.143-.855.51-.57.764-1.383.764-2.438v-.527c0-1.025-.24-1.822-.721-2.391-.482-.568-1.164-.857-2.049-.865h-1.389zM220.256 58.188h4.275v.973h-5.473V50.14h1.195v8.049h.003zM231.465 56.801h-3.779l-.848 2.359h-1.229l3.445-9.021h1.041l3.451 9.021h-1.221l-.86-2.359zm-3.42-.974h3.068l-1.537-4.219-1.531 4.219zM237.303 56.317l.176 1.188.254-1.071 1.783-6.295h1.004l1.74 6.295.248 1.092.191-1.215 1.4-6.172h1.195l-2.188 9.021h-1.084l-1.859-6.574-.143-.688-.143.688-1.928 6.574h-1.084l-2.182-9.021h1.189l1.431 6.178z"/></g></g></svg>