<?xml version="1.0" encoding="UTF-8" standalone="no"?>
<svg
   width="43.575909"
   height="33.512001"
   viewBox="0 0 11.529459 8.8667172"
   version="1.1"
   id="svg8"
   sodipodi:docname="dlcdb-inventory-logo.svg"
   inkscape:version="1.1.1 (3bf5ae0d25, 2021-09-20)"
   xmlns:inkscape="http://www.inkscape.org/namespaces/inkscape"
   xmlns:sodipodi="http://sodipodi.sourceforge.net/DTD/sodipodi-0.dtd"
   xmlns="http://www.w3.org/2000/svg"
   xmlns:svg="http://www.w3.org/2000/svg"
   xmlns:rdf="http://www.w3.org/1999/02/22-rdf-syntax-ns#"
   xmlns:cc="http://creativecommons.org/ns#"
   xmlns:dc="http://purl.org/dc/elements/1.1/">
  <sodipodi:namedview
     id="namedview9"
     pagecolor="#ffffff"
     bordercolor="#666666"
     borderopacity="1.0"
     inkscape:pageshadow="2"
     inkscape:pageopacity="0.0"
     inkscape:pagecheckerboard="0"
     showgrid="false"
     inkscape:zoom="26.050369"
     inkscape:cx="21.78472"
     inkscape:cy="16.756001"
     inkscape:window-width="1920"
     inkscape:window-height="1131"
     inkscape:window-x="0"
     inkscape:window-y="0"
     inkscape:window-maximized="1"
     inkscape:current-layer="svg8" />
  <defs
     id="defs2" />
  <metadata
     id="metadata5">
    <rdf:RDF>
      <cc:Work
         rdf:about="">
        <dc:format>image/svg+xml</dc:format>
        <dc:type
           rdf:resource="http://purl.org/dc/dcmitype/StillImage" />
        <dc:title />
      </cc:Work>
    </rdf:RDF>
  </metadata>
  <g
     id="layer1"
     transform="translate(-53.625116,-83.58102)">
    <g
       aria-label="DLCDBInventory"
       id="text842"
       style="font-size:3.70417px;line-height:1.05;font-family:'Roboto Condensed';-inkscape-font-specification:'Roboto Condensed, ';letter-spacing:0px;word-spacing:0px;stroke-width:0.264583">
      <path
         d="M 54.201907,87.568817 V 84.13982 h 0.745066 q 0.381,0 0.601133,0.118533 0.224366,0.1143 0.3175,0.347133 0.09737,0.232833 0.09737,0.579966 v 1.261533 q 0,0.364066 -0.09737,0.613833 -0.09313,0.249766 -0.309033,0.380999 -0.211667,0.127 -0.5715,0.127 z m 0.478366,-0.3429 h 0.270934 q 0.262466,0 0.372533,-0.101599 0.110066,-0.1016 0.131233,-0.296334 0.0254,-0.194733 0.0254,-0.469899 v -1.113366 q 0,-0.2667 -0.03387,-0.4318 -0.03387,-0.165099 -0.148166,-0.241299 -0.1143,-0.0762 -0.359833,-0.0762 h -0.258234 z"
         style="font-size:4.23333px;font-family:Oswald;-inkscape-font-specification:'Oswald, Normal';fill:#4d4d4d"
         id="path11" />
      <path
         d="M 56.432866,87.568817 V 84.13982 h 0.478366 v 3.086097 h 0.876299 v 0.3429 z"
         style="font-size:4.23333px;font-family:Oswald;-inkscape-font-specification:'Oswald, Normal';fill:#4d4d4d"
         id="path13" />
      <path
         d="m 58.947459,87.606917 q -0.364067,0 -0.567266,-0.1524 -0.198967,-0.1524 -0.2794,-0.410633 -0.0762,-0.258233 -0.0762,-0.575733 v -1.210732 q 0,-0.347133 0.0762,-0.605366 0.08043,-0.258233 0.2794,-0.397933 0.203199,-0.143933 0.567266,-0.143933 0.321733,0 0.507999,0.118533 0.1905,0.118533 0.270933,0.338666 0.08467,0.220133 0.08467,0.529167 v 0.270933 h -0.452966 v -0.2413 q 0,-0.1905 -0.02117,-0.334433 -0.01693,-0.148167 -0.1016,-0.2286 -0.08467,-0.08043 -0.283633,-0.08043 -0.2032,0 -0.296333,0.0889 -0.09313,0.08467 -0.122767,0.245533 -0.0254,0.156633 -0.0254,0.368299 v 1.358899 q 0,0.258233 0.04233,0.410633 0.04233,0.148167 0.1397,0.211667 0.09737,0.0635 0.262466,0.0635 0.194733,0 0.2794,-0.08467 0.08467,-0.0889 0.105833,-0.2413 0.02117,-0.1524 0.02117,-0.355599 v -0.254 h 0.452966 v 0.254 q 0,0.313266 -0.0762,0.554566 -0.0762,0.237066 -0.262466,0.372533 -0.186267,0.131233 -0.524933,0.131233 z"
         style="font-size:4.23333px;font-family:Oswald;-inkscape-font-specification:'Oswald, Normal';fill:#4d4d4d"
         id="path15" />
      <path
         d="M 60.268255,87.568817 V 84.13982 h 0.745066 q 0.380999,0 0.601133,0.118533 0.224366,0.1143 0.317499,0.347133 0.09737,0.232833 0.09737,0.579966 v 1.261533 q 0,0.364066 -0.09737,0.613833 -0.09313,0.249766 -0.309033,0.380999 -0.211666,0.127 -0.571499,0.127 z m 0.478366,-0.3429 h 0.270933 q 0.262467,0 0.372533,-0.101599 0.110067,-0.1016 0.131233,-0.296334 0.0254,-0.194733 0.0254,-0.469899 v -1.113366 q 0,-0.2667 -0.03387,-0.4318 -0.03387,-0.165099 -0.148167,-0.241299 -0.1143,-0.0762 -0.359833,-0.0762 h -0.258233 z"
         style="font-size:4.23333px;font-family:Oswald;-inkscape-font-specification:'Oswald, Normal';fill:#4d4d4d"
         id="path17" />
      <path
         d="M 62.499213,87.568817 V 84.13982 h 0.7874 q 0.232833,0 0.402166,0.0508 0.173566,0.0508 0.287866,0.156633 0.1143,0.105833 0.169333,0.270933 0.05503,0.160867 0.05503,0.381 0,0.211666 -0.05503,0.3683 -0.0508,0.1524 -0.160866,0.241299 -0.105833,0.0889 -0.275166,0.1143 0.207433,0.04657 0.334433,0.160867 0.126999,0.110066 0.186266,0.287866 0.0635,0.173567 0.0635,0.4191 0,0.220133 -0.0508,0.402166 -0.0508,0.182033 -0.160866,0.309033 -0.105834,0.127 -0.275167,0.198967 -0.1651,0.06773 -0.3937,0.06773 z m 0.478366,-0.3429 h 0.321734 q 0.321733,0 0.427566,-0.148166 0.110066,-0.1524 0.110066,-0.486833 0,-0.2159 -0.05927,-0.359833 -0.05503,-0.148167 -0.182033,-0.220133 -0.122767,-0.0762 -0.334433,-0.0762 h -0.283634 z m 0,-1.655232 h 0.283634 q 0.203199,0 0.317499,-0.05503 0.1143,-0.05927 0.160867,-0.186266 0.04657,-0.127 0.04657,-0.3302 0,-0.237067 -0.07197,-0.3429 -0.07197,-0.105833 -0.224367,-0.131233 -0.1524,-0.02963 -0.397933,-0.02963 h -0.1143 z"
         style="font-size:4.23333px;font-family:Oswald;-inkscape-font-specification:'Oswald, Normal';fill:#4d4d4d"
         id="path19" />
      <path
         d="m 54.154282,91.458199 v -2.57175 h 0.352425 v 2.57175 z"
         style="font-size:3.175px;font-family:Oswald;-inkscape-font-specification:'Oswald, Normal';fill:#4d4d4d"
         id="path21" />
      <path
         d="m 54.894055,91.458199 v -1.83515 h 0.339725 v 0.180975 q 0.09207,-0.08572 0.2032,-0.14605 0.111125,-0.06032 0.244475,-0.06032 0.111125,0 0.168275,0.05715 0.06032,0.05715 0.08255,0.142875 0.0254,0.08572 0.0254,0.174625 v 1.4859 h -0.339725 v -1.387475 q 0,-0.09842 -0.02858,-0.1524 -0.02857,-0.05397 -0.117475,-0.05397 -0.05715,0 -0.12065,0.03493 -0.06032,0.03175 -0.117475,0.07937 v 1.47955 z"
         style="font-size:3.175px;font-family:Oswald;-inkscape-font-specification:'Oswald, Normal';fill:#4d4d4d"
         id="path23" />
      <path
         d="m 56.526002,91.458199 -0.36195,-1.83515 h 0.3429 l 0.225425,1.476375 0.2286,-1.476375 h 0.3302 l -0.34925,1.83515 z"
         style="font-size:3.175px;font-family:Oswald;-inkscape-font-specification:'Oswald, Normal';fill:#4d4d4d"
         id="path25" />
      <path
         d="m 58.018247,91.483599 q -0.2159,0 -0.333375,-0.08255 -0.117475,-0.08572 -0.1651,-0.24765 -0.04445,-0.1651 -0.04445,-0.403225 v -0.4191 q 0,-0.244475 0.04763,-0.4064 0.04762,-0.161925 0.1651,-0.244475 0.12065,-0.08255 0.3302,-0.08255 0.231775,0 0.339725,0.09525 0.111125,0.09525 0.14605,0.276225 0.03493,0.1778 0.03493,0.428625 v 0.149225 h -0.7239 v 0.3683 q 0,0.111125 0.01905,0.180975 0.02222,0.06985 0.06668,0.104775 0.04762,0.03175 0.12065,0.03175 0.0762,0 0.1143,-0.03493 0.04127,-0.0381 0.05398,-0.104775 0.01587,-0.06985 0.01587,-0.161925 v -0.111125 h 0.3302 v 0.06985 q 0,0.276225 -0.117475,0.434975 -0.117475,0.15875 -0.40005,0.15875 z m -0.2032,-1.120775 h 0.390525 v -0.1651 q 0,-0.1143 -0.0127,-0.1905 -0.0127,-0.07937 -0.05398,-0.117475 -0.0381,-0.04127 -0.123825,-0.04127 -0.08255,0 -0.127,0.0381 -0.04127,0.0381 -0.05715,0.130175 -0.01588,0.0889 -0.01588,0.24765 z"
         style="font-size:3.175px;font-family:Oswald;-inkscape-font-specification:'Oswald, Normal';fill:#4d4d4d"
         id="path27" />
      <path
         d="m 58.84692,91.458199 v -1.83515 h 0.339725 v 0.180975 q 0.09208,-0.08572 0.2032,-0.14605 0.111125,-0.06032 0.244475,-0.06032 0.111125,0 0.168275,0.05715 0.06033,0.05715 0.08255,0.142875 0.0254,0.08572 0.0254,0.174625 v 1.4859 H 59.57082 v -1.387475 q 0,-0.09842 -0.02857,-0.1524 -0.02858,-0.05397 -0.117475,-0.05397 -0.05715,0 -0.12065,0.03493 -0.06032,0.03175 -0.117475,0.07937 v 1.47955 z"
         style="font-size:3.175px;font-family:Oswald;-inkscape-font-specification:'Oswald, Normal';fill:#4d4d4d"
         id="path29" />
      <path
         d="m 60.729693,91.483599 q -0.142875,0 -0.231775,-0.05397 -0.08572,-0.05398 -0.127,-0.1524 -0.0381,-0.09843 -0.0381,-0.231775 v -1.196975 h -0.193675 v -0.225425 h 0.193675 v -0.536575 h 0.339725 v 0.536575 h 0.295275 v 0.225425 h -0.295275 v 1.17475 q 0,0.10795 0.03493,0.155575 0.03493,0.04445 0.13335,0.04445 0.0254,0 0.05715,-0.0032 0.03493,-0.0032 0.06668,-0.0063 v 0.250825 q -0.0635,0.0095 -0.117475,0.0127 -0.05398,0.0063 -0.117475,0.0063 z"
         style="font-size:3.175px;font-family:Oswald;-inkscape-font-specification:'Oswald, Normal';fill:#4d4d4d"
         id="path31" />
      <path
         d="m 61.723463,91.483599 q -0.2032,0 -0.320675,-0.08255 -0.117475,-0.08255 -0.168275,-0.23495 -0.04762,-0.1524 -0.04762,-0.358775 v -0.5334 q 0,-0.206375 0.04762,-0.358775 0.0508,-0.1524 0.168275,-0.23495 0.117475,-0.08255 0.320675,-0.08255 0.2032,0 0.3175,0.08255 0.117475,0.08255 0.1651,0.23495 0.0508,0.1524 0.0508,0.358775 v 0.5334 q 0,0.206375 -0.0508,0.358775 -0.04763,0.1524 -0.1651,0.23495 -0.1143,0.08255 -0.3175,0.08255 z m 0,-0.250825 q 0.09842,0 0.136525,-0.05715 0.04127,-0.05715 0.04762,-0.149225 0.0095,-0.09525 0.0095,-0.19685 v -0.574675 q 0,-0.104775 -0.0095,-0.19685 -0.0063,-0.09208 -0.04762,-0.149225 -0.0381,-0.06033 -0.136525,-0.06033 -0.09842,0 -0.1397,0.06033 -0.04127,0.05715 -0.0508,0.149225 -0.0064,0.09207 -0.0064,0.19685 v 0.574675 q 0,0.1016 0.0064,0.19685 0.0095,0.09208 0.0508,0.149225 0.04128,0.05715 0.1397,0.05715 z"
         style="font-size:3.175px;font-family:Oswald;-inkscape-font-specification:'Oswald, Normal';fill:#4d4d4d"
         id="path33" />
      <path
         d="m 62.577536,91.458199 v -1.83515 h 0.339725 v 0.26035 q 0.1016,-0.168275 0.2032,-0.225425 0.1016,-0.05715 0.2032,-0.05715 0.0127,0 0.02222,0 0.0127,0 0.03175,0.0032 v 0.37465 q -0.0381,-0.01588 -0.0889,-0.0254 -0.04763,-0.0127 -0.09842,-0.0127 -0.07937,0 -0.14605,0.0381 -0.0635,0.03493 -0.127,0.1397 v 1.33985 z"
         style="font-size:3.175px;font-family:Oswald;-inkscape-font-specification:'Oswald, Normal';fill:#4d4d4d"
         id="path35" />
      <path
         d="m 63.558608,91.918574 v -0.26035 q 0.123825,0 0.19685,-0.0127 0.07303,-0.0095 0.104775,-0.04127 0.03175,-0.02857 0.03175,-0.08255 0,-0.02858 -0.02223,-0.127 -0.02222,-0.09843 -0.04762,-0.20955 l -0.3683,-1.5621 h 0.3429 l 0.24765,1.3716 0.238125,-1.3716 h 0.3429 l -0.43815,1.93675 q -0.02858,0.13335 -0.104775,0.20955 -0.0762,0.07937 -0.19685,0.1143 -0.117475,0.03493 -0.28575,0.03493 z"
         style="font-size:3.175px;font-family:Oswald;-inkscape-font-specification:'Oswald, Normal';fill:#4d4d4d"
         id="path37" />
    </g>
  </g>
</svg>
