<!--
SPDX-FileCopyrightText: 2024 Thomas Breitner
 
SPDX-License-Identifier: CC0-1.0

Source: https://commons.wikimedia.org/wiki/File:Missing_avatar.svg
-->

<svg width="120mm" height="120mm" version="1.1" viewBox="0 0 120 120" xmlns="http://www.w3.org/2000/svg"><g transform="translate(-5.6465 3.0292)" stroke="#000" stroke-linecap="round"><path d="m125.61 56.971a59.967 59.967 0 0 1-59.715 59.967 59.967 59.967 0 0 1-60.217-59.462 59.967 59.967 0 0 1 59.208-60.467 59.967 59.967 0 0 1 60.715 58.954" fill="#999" fill-opacity=".77064" opacity=".99" stroke-width=".065476"/><path d="m65.3 15.546a27.466 27.466 0 0 0-27.118 27.694 27.466 27.466 0 0 0 11.047 21.759 37.469 37.469 0 0 0-21.051 33.945 37.469 37.469 0 0 0 0.43873 5.1165 59.967 59.967 0 0 0 2.9507 2.2231 34.971 34.971 0 0 1-0.89142-7.3608 34.971 34.971 0 0 1 20.987-32.307 27.466 27.466 0 0 0 14.098 3.8576 27.466 27.466 0 0 0 13.872-3.8618 34.971 34.971 0 0 1 20.979 31.429l5e-3 0.58808a34.971 34.971 0 0 1-0.85783 7.5778 59.967 59.967 0 0 0 2.9218-2.0893 37.469 37.469 0 0 0 0.43408-5.4886l-5e-3 -0.63045a37.469 37.469 0 0 0-21.011-33.032 27.466 27.466 0 0 1-0.06873 0.046508 27.466 27.466 0 0 0 11.081-22.004l-0.0036-0.4625a27.466 27.466 0 0 0-27.809-27.001zm0.03152 2.4965a24.969 24.969 0 0 1 25.28 24.547l0.0036 0.42013a24.969 24.969 0 0 1-24.864 24.969 24.969 24.969 0 0 1-25.073-24.759 24.969 24.969 0 0 1 24.653-25.177z" fill="#e6e6e6" opacity=".99" stroke-width=".068751"/></g></svg>
