<?xml version="1.0" encoding="UTF-8" standalone="no"?>
<!-- Created with Inkscape (http://www.inkscape.org/) -->

<svg
   version="1.0"
   width="300"
   height="77.271"
   id="svg58"
   sodipodi:docname="dlcdb_logo_black.svg"
   inkscape:version="1.2.2 (b0a8486541, 2022-12-01)"
   xmlns:inkscape="http://www.inkscape.org/namespaces/inkscape"
   xmlns:sodipodi="http://sodipodi.sourceforge.net/DTD/sodipodi-0.dtd"
   xmlns="http://www.w3.org/2000/svg"
   xmlns:svg="http://www.w3.org/2000/svg">
  <defs
     id="defs62" />
  <sodipodi:namedview
     id="namedview60"
     pagecolor="#ffffff"
     bordercolor="#666666"
     borderopacity="1.0"
     inkscape:showpageshadow="2"
     inkscape:pageopacity="0.0"
     inkscape:pagecheckerboard="0"
     inkscape:deskcolor="#d1d1d1"
     showgrid="false"
     inkscape:zoom="2"
     inkscape:cx="106.5"
     inkscape:cy="39.75"
     inkscape:window-width="1920"
     inkscape:window-height="1131"
     inkscape:window-x="0"
     inkscape:window-y="0"
     inkscape:window-maximized="1"
     inkscape:current-layer="layer3" />
  <g
     inkscape:groupmode="layer"
     id="layer3"
     inkscape:label="Layer 2">
    <path
       d="M 6.1643861,72.218764 V 5.3043734 H 20.703807 q 7.434933,0 11.730683,2.3130819 4.378339,2.2304819 6.19577,6.7740507 1.900111,4.543568 1.900111,11.317614 v 24.617905 q 0,7.104486 -1.900111,11.978507 -1.817354,4.874001 -6.030551,7.434918 -4.130531,2.478314 -11.152408,2.478314 z m 9.3349689,-6.691445 h 5.287078 q 5.121836,0 7.269717,-1.98263 2.147856,-1.982651 2.560909,-5.782746 0.495669,-3.80007 0.495669,-9.169737 V 26.865677 q 0,-5.204458 -0.660952,-8.426265 -0.660952,-3.221786 -2.891359,-4.708774 -2.230471,-1.486988 -7.021872,-1.486988 h -5.039252 z"
       style="font-size:4.23333px;line-height:1.05;font-family:Oswald;-inkscape-font-specification:'Oswald, Normal';letter-spacing:0px;word-spacing:0px;fill:#000000;stroke-width:5.16314"
       id="path11" />
    <path
       d="M 49.699937,72.218764 V 5.3043734 H 59.0349 V 65.527319 h 17.100331 v 6.691445 z"
       style="font-size:4.23333px;line-height:1.05;font-family:Oswald;-inkscape-font-specification:'Oswald, Normal';letter-spacing:0px;word-spacing:0px;fill:#000000;stroke-width:5.16314"
       id="path13" />
    <path
       d="m 98.770381,72.962258 q -7.104493,0 -11.069792,-2.973976 -3.882697,-2.973976 -5.452293,-8.013207 -1.486981,-5.039227 -1.486981,-11.235009 V 27.113507 q 0,-6.77405 1.486981,-11.813281 1.569545,-5.039226 5.452293,-7.7653708 3.965299,-2.8087496 11.069792,-2.8087496 6.278399,0 9.913259,2.3130871 3.71747,2.3130817 5.28706,6.6088193 1.65227,4.295737 1.65227,10.32631 v 5.287063 h -8.83932 V 24.55259 q 0,-3.71747 -0.41306,-6.52622 -0.33043,-2.89137 -1.98265,-4.460964 -1.65226,-1.569531 -5.534892,-1.569531 -3.9653,0 -5.782731,1.73482 -1.817379,1.65227 -2.395702,4.791399 -0.495669,3.056576 -0.495669,7.187088 v 26.517929 q 0,5.039231 0.826055,8.013207 0.826054,2.89137 2.726153,4.130527 1.900085,1.239157 5.121842,1.239157 3.800034,0 5.452294,-1.652277 1.65225,-1.734819 2.0652,-4.708795 0.41305,-2.973976 0.41305,-6.939256 v -4.956625 h 8.83927 v 4.956625 q 0,6.113163 -1.48699,10.821958 -1.48698,4.626169 -5.12179,7.269707 -3.63486,2.560919 -10.243701,2.560919 z"
       style="font-size:4.23333px;line-height:1.05;font-family:Oswald;-inkscape-font-specification:'Oswald, Normal';letter-spacing:0px;word-spacing:0px;fill:#000000;stroke-width:5.16314"
       id="path15" />
    <path
       id="path17"
       style="font-size:4.23333px;line-height:1.05;font-family:Oswald;-inkscape-font-specification:'Oswald, Normal';letter-spacing:0px;word-spacing:0px;fill:#000000;stroke-width:5.16314"
       d="M 124.54216,5.3008986 V 72.220189 h 15.28779 c 4.68127,0 8.39956,-0.828577 11.15318,-2.480734 2.8088,-1.707306 4.81887,-4.182789 6.03046,-7.43211 1.26667,-3.249342 1.8958,-7.243815 1.8958,-11.980124 V 25.711485 c 0,-4.516034 -0.62913,-8.295601 -1.8958,-11.324642 -1.21164,-3.029045 -3.28295,-5.2795705 -6.20188,-6.7665583 -2.8638,-1.5420167 -6.77143,-2.3193861 -11.728,-2.3193861 z m 9.33808,6.9379864 h 5.04213 c 3.19423,0 5.53163,0.501135 7.01863,1.492456 1.48698,0.991324 2.45358,2.561501 2.89421,4.709356 0.4404,2.147878 0.65551,4.950792 0.65551,8.420374 v 21.731625 c 0,3.579773 -0.1642,6.633231 -0.49412,9.166614 -0.27519,2.533404 -1.12948,4.466621 -2.56138,5.788384 -1.432,1.3217 -3.8562,1.976521 -7.2708,1.976521 h -5.28418 z" />
    <path
       d="M 168.08029,72.218764 V 5.3043734 h 15.36554 q 4.54357,0 7.84798,0.9913253 3.38703,0.9913252 5.61751,3.0565757 2.23049,2.0652556 3.30443,5.2870636 1.07387,3.1392 1.07387,7.434938 0,4.130507 -1.07387,7.187109 -0.99133,2.973974 -3.13921,4.708773 -2.06525,1.734819 -5.36968,2.230482 4.04792,0.908781 6.52624,3.139201 2.4783,2.147862 3.63485,5.6175 1.23916,3.387033 1.23916,8.178433 0,4.295737 -0.99133,7.847975 -0.99132,3.552244 -3.13919,6.030557 -2.06527,2.478314 -5.36968,3.882697 -3.22181,1.321704 -7.68278,1.321704 z m 9.33497,-6.691445 h 6.2784 q 6.27839,0 8.34365,-2.89135 2.14787,-2.973975 2.14787,-9.500195 0,-4.213132 -1.15659,-7.021882 -1.07389,-2.89137 -3.55225,-4.295738 -2.3957,-1.486987 -6.52623,-1.486987 h -5.5349 z m 0,-32.300654 h 5.5349 q 3.9653,0 6.19578,-1.073869 2.23049,-1.156614 3.1392,-3.634849 0.90877,-2.478312 0.90877,-6.443614 0,-4.62619 -1.40443,-6.691445 -1.40443,-2.065251 -4.37835,-2.560913 -2.97398,-0.578212 -7.76538,-0.578212 h -2.23049 z"
       style="font-size:4.23333px;line-height:1.05;font-family:Oswald;-inkscape-font-specification:'Oswald, Normal';letter-spacing:0px;word-spacing:0px;fill:#000000;stroke-width:5.16314"
       id="path19" />
  </g>
</svg>
